<svg width="51" height="51" viewBox="0 0 51 51" fill="none" xmlns="http://www.w3.org/2000/svg">
<g id="Group">
<path id="Vector" d="M25.021 50.147C38.8281 50.147 50.021 38.9541 50.021 25.147C50.021 11.3399 38.8281 0.146973 25.021 0.146973C11.2139 0.146973 0.0209961 11.3399 0.0209961 25.147C0.0209961 38.9541 11.2139 50.147 25.021 50.147Z" fill="#D4CAFF"/>
<g id="Group_2">
<g id="Clip path group">
<mask id="mask0_153_10226" style="mask-type:luminance" maskUnits="userSpaceOnUse" x="0" y="0" width="51" height="51">
<g id="SVGID_00000070802389588805183500000004314807415318807196_">
<path id="Vector_2" d="M25.021 50.147C38.8281 50.147 50.021 38.9541 50.021 25.147C50.021 11.3399 38.8281 0.146973 25.021 0.146973C11.2139 0.146973 0.0209961 11.3399 0.0209961 25.147C0.0209961 38.9541 11.2139 50.147 25.021 50.147Z" fill="white"/>
</g>
</mask>
<g mask="url(#mask0_153_10226)">
<g id="Group_3">
<g id="Group_4">
<g id="Group_5">
<g id="Group_6">
<g id="Group_7">
<path id="Vector_3" d="M48.9196 84.927H5.65208C5.4706 83.2739 12.098 48.1147 19.8826 36.8109C20.7657 35.5284 28.3321 34.5947 31.11 37.7849C45.8231 54.6815 49.2749 84.5216 48.9196 84.927Z" fill="#1B4B4C"/>
</g>
<g id="Group_8">
<path id="Vector_4" d="M19.9647 37.4263C19.9647 38.267 19.3301 38.9622 18.5137 39.0551C18.9664 38.2306 19.4231 37.4788 19.8839 36.8119C19.8919 36.7998 19.9041 36.7836 19.9122 36.7715C19.9445 36.9857 19.9647 37.208 19.9647 37.4263Z" fill="#D4CAFF"/>
<path id="Vector_5" d="M29.8307 37.4263C29.8307 38.3317 29.0951 39.0673 28.1938 39.0673C27.2884 39.0673 26.5528 38.3317 26.5528 37.4263C26.5528 36.8523 26.67 36.2946 26.8438 35.7812C27.8947 35.9389 28.9132 36.242 29.7701 36.723C29.8105 36.9534 29.8307 37.1919 29.8307 37.4263Z" fill="#D4CAFF"/>
<path id="Vector_6" d="M15.0134 47.0171C14.9851 47.2475 14.9043 47.4577 14.783 47.6436C14.8598 47.4334 14.9366 47.2232 15.0134 47.0171Z" fill="#D4CAFF"/>
<path id="Vector_7" d="M24.8973 46.7792C24.8973 47.6838 24.1641 48.417 23.2595 48.417C22.355 48.417 21.6218 47.6838 21.6218 46.7792C21.6218 44.6476 23.2595 42.7002 23.2595 42.7002C23.2595 42.7002 24.8973 44.7256 24.8973 46.7792Z" fill="#D4CAFF"/>
<path id="Vector_8" d="M34.763 46.7792C34.763 47.6838 34.0298 48.417 33.1252 48.417C32.2207 48.417 31.4875 47.6838 31.4875 46.7792C31.4875 44.6476 33.1252 42.7002 33.1252 42.7002C33.1252 42.7002 34.763 44.7256 34.763 46.7792Z" fill="#D4CAFF"/>
</g>
</g>
<g id="Group_9">
<path id="Vector_9" d="M18.857 39.7293C17.6291 42.9103 12.996 54.0653 10.4775 62.0706C8.78761 67.4426 8.14414 71.9513 7.77431 73.1364C7.77431 73.1364 20.5502 69.0331 23.4267 69.0258C27.857 69.0149 34.963 78.2671 33.2201 79.4263C30.4798 81.2487 17.4173 87.4489 6.98575 89.3955C1.31505 90.4536 -9.36835 83.2462 -8.52441 77.5165C-7.33975 69.4749 7.19188 48.2778 12.7211 42.2668C15.592 39.1461 20.3533 35.852 18.857 39.7293Z" fill="white"/>
<g id="Group_10">
<path id="Vector_10" d="M-9.30235 79.2155C-9.03478 85.0083 -1.78857 89.8844 2.41333 90.1423C9.66116 90.582 31.4038 84.2501 31.4038 84.2501L22.9524 67.9675C22.9524 67.9675 8.1572 72.9895 7.78171 73.131L7.78211 73.1245C7.91307 72.6928 11.5588 58.9926 13.1877 54.4528C13.2746 54.2022 13.3752 53.946 13.4702 53.676C13.939 52.4185 14.5825 50.7582 15.2931 48.964L15.3003 48.9514C15.694 47.9584 16.1103 46.9208 16.5194 45.8958L16.5198 45.8894C18.3067 41.4506 20.0483 37.2261 20.0483 37.2261C17.5577 37.6347 15.0987 38.9439 11.0609 43.1821C7.02992 47.4135 -9.74412 69.6594 -9.30235 79.2155Z" fill="#1B4B4C"/>
<g id="Group_11">
<path id="Vector_11" d="M19.9645 37.4262C19.9645 37.4302 19.9645 37.4302 19.9645 37.4342C19.9605 37.8788 19.7867 38.283 19.4957 38.574C19.2006 38.8772 18.7843 39.0671 18.3276 39.0671C17.7415 39.0671 17.2282 38.76 16.9412 38.2951C18.0123 37.7172 18.9864 37.4059 19.9605 37.2402C19.9645 37.3049 19.9645 37.3655 19.9645 37.4262Z" fill="#D4CAFF"/>
<path id="Vector_12" d="M15.0316 46.7792C15.0316 47.6838 14.2984 48.417 13.3938 48.417C12.4892 48.417 11.756 47.6838 11.756 46.7792C11.756 44.6476 13.3938 42.7002 13.3938 42.7002C13.3938 42.7002 15.0316 44.7256 15.0316 46.7792Z" fill="#D4CAFF"/>
</g>
<g id="Group_12">
<path id="Vector_13" d="M3.25671 75.5325L7.77468 73.1369L7.78156 73.1309L7.78196 73.1244C7.91291 72.6927 11.5587 58.9925 13.1875 54.4527C13.2744 54.2021 13.3751 53.9458 13.47 53.6759C13.9389 52.4184 14.5824 50.758 15.2929 48.9639L3.25671 75.5325Z" fill="#D4CAFF"/>
</g>
</g>
</g>
<g id="Group_13">
<g id="Group_14">
<path id="Vector_14" d="M2.80634 74.0121C3.94007 74.0274 10.7857 72.1989 11.7829 73.1386C17.8594 78.8667 19.7801 77.7128 21.0734 78.4589C31.0855 84.2193 44.4559 90.9862 49.2285 91.029C56.4662 91.0876 59.3489 85.0139 58.1444 79.2749C55.7662 67.9299 40.4658 45.8097 33.5433 39.9325C29.8725 36.8206 30.1627 41.5144 31.6813 46.616C32.5717 49.6078 34.129 54.0559 35.7178 58.4206C37.1252 62.3089 40.8538 72.2458 40.9185 72.479L40.9181 72.4854C40.9237 72.4988 40.9302 72.5061 40.9298 72.5125C40.9346 72.5392 40.9084 72.5441 40.8502 72.5275C40.5321 72.4689 31.9702 68.4339 23.3599 66.2174C20.3257 65.4361 14.0071 64.3233 11.7416 65.3346C10.3945 65.936 10.3715 66.74 10.3715 66.74C10.3715 66.74 9.29147 66.6418 8.15248 67.5795C7.39706 68.2015 7.16263 69.0818 7.16263 69.0818C7.16263 69.0818 5.9808 69.2471 5.36604 69.9322C4.63285 70.7491 4.56818 71.6136 4.56818 71.6136C2.97408 72.0392 2.80634 74.0121 2.80634 74.0121Z" fill="white"/>
</g>
<g id="Group_15">
<path id="Vector_15" d="M29.7671 67.9411C28.1827 67.4047 27.4661 67.4015 27.4661 67.4015L18.4584 82.6133C18.4584 82.6133 43.2697 91.5454 48.3644 92.068C53.4588 92.5906 59.2544 88.5787 59.3522 82.1825C59.4896 73.1934 44.8311 51.6064 37.4575 43.2587C34.0781 39.4327 30.1377 36.6548 29.1333 37.2813C27.9463 38.0221 30.1018 42.8323 31.2375 46.4207C33.3348 53.0453 40.8494 72.5277 40.8494 72.5277C40.8494 72.5277 31.6546 68.5801 29.7671 67.9411Z" fill="#1B4B4C"/>
<g id="Group_16">
<path id="Vector_16" d="M29.8308 37.4264C29.8308 38.0933 29.4307 38.6713 28.8568 38.9259C28.7193 38.1014 28.7719 37.5072 29.1316 37.2809C29.2933 37.1798 29.5277 37.1677 29.8268 37.2324C29.8309 37.297 29.8308 37.3617 29.8308 37.4264Z" fill="#D4CAFF"/>
<path id="Vector_17" d="M34.7631 46.7792C34.7631 47.6838 34.0299 48.417 33.1254 48.417C32.2208 48.417 31.4876 47.6838 31.4876 46.7792C31.4876 44.6476 33.1254 42.7002 33.1254 42.7002C33.1254 42.7002 34.7631 44.7256 34.7631 46.7792Z" fill="#D4CAFF"/>
</g>
</g>
</g>
<g id="Group_17">
<g id="Group_18">
<g id="Group_19">
<g id="Group_20">
<path id="Vector_18" d="M20.705 43.1874C23.0363 44.0256 27.5636 40.8314 29.5243 38.049C29.6577 37.8574 29.5889 35.678 29.631 33.0262C29.6629 31.4167 29.7361 29.6258 29.9208 27.9961L19.4185 29.3194C19.4185 29.3194 20.0356 32.8495 19.6957 35.6885C19.6646 35.9254 19.6161 36.1436 19.5494 36.3494C19.5425 36.3797 19.5296 36.416 19.5219 36.4585C19.1711 37.705 18.4521 42.3757 20.705 43.1874Z" fill="white"/>
</g>
<path id="Vector_19" d="M19.5194 36.4574C19.4992 36.5249 19.479 36.5988 19.4657 36.6865C25.7532 36.4202 28.1443 33.6556 29.6924 31.0033C29.7396 29.992 29.8071 28.9674 29.9215 27.9966L19.4184 29.3179C19.4184 29.3179 20.0388 32.8504 19.6949 35.6886C19.6678 35.9247 19.614 36.1401 19.5465 36.3495C19.5396 36.3765 19.5328 36.417 19.5194 36.4574Z" fill="#1B4B4C"/>
</g>
<g id="Group_21">
<g id="Group_22">
<path id="Vector_20" d="M33.7833 21.2105C33.7833 21.2105 40.1294 27.9184 39.0914 29.1325C38.0535 30.3467 28.7875 28.6091 26.7569 27.011C24.7263 25.4128 20.9961 18.8877 20.9961 18.8877L33.7833 21.2105Z" fill="#FC8E44"/>
</g>
<g id="Group_23">
<path id="Vector_21" d="M32.7586 14.938C33.86 18.589 31.9009 29.1188 29.2992 31.4598C25.5277 34.8534 19.3696 35.1597 16.4902 30.6301C13.6993 26.2394 16.4954 12.5614 19.3999 10.4358C23.6782 7.30458 31.1318 9.54538 32.7586 14.938Z" fill="white"/>
</g>
<g id="Group_24">
<g id="Group_25">
<path id="Vector_22" d="M20.6187 25.8914C20.6187 25.8914 21.0467 26.505 21.6497 26.7394C21.872 26.8267 22.1129 26.8651 22.3684 26.8049C22.893 26.6828 22.9201 26.2055 22.836 25.7936C22.7681 25.4549 22.6206 25.1606 22.6206 25.1606C22.6206 25.1606 21.8405 25.851 20.6187 25.8914Z" fill="white"/>
<g id="Group_26">
<path id="Vector_23" d="M21.0779 26.3884C21.1106 26.4155 21.1478 26.4475 21.185 26.4749C21.3523 26.4467 21.5209 26.4091 21.6793 26.3428C21.4768 26.3622 21.2747 26.3775 21.0779 26.3884Z" fill="white"/>
<path id="Vector_24" d="M22.1923 26.1722C22.3196 26.1387 22.4433 26.0954 22.5601 26.0328C22.6619 25.9822 22.7529 25.9119 22.8438 25.842C22.841 25.8278 22.839 25.8097 22.8361 25.7955C22.8301 25.7721 22.8284 25.749 22.8224 25.7256C22.6284 25.8917 22.4109 26.0275 22.1923 26.1722Z" fill="white"/>
</g>
</g>
<g id="Group_27">
<path id="Vector_25" d="M23.798 20.8387C23.8085 20.8128 23.8473 20.8823 23.8413 20.9114C23.6905 21.6171 23.6363 22.451 24.2357 22.803C24.2543 22.8139 24.2458 22.8491 24.2224 22.8418C23.4589 22.5892 23.5418 21.4829 23.798 20.8387Z" fill="#1B4B4C"/>
<path id="Vector_26" d="M24.5664 20.2122C25.7239 20.3318 25.3986 22.6381 24.3263 22.5269C23.271 22.4178 23.5959 20.1115 24.5664 20.2122Z" fill="#1B4B4C"/>
</g>
<g id="Group_28">
<path id="Vector_27" d="M19.4456 20.1842C19.4439 20.1559 19.3849 20.2101 19.3817 20.2392C19.3037 20.957 19.0935 21.7654 18.4141 21.9113C18.3931 21.9157 18.3898 21.9521 18.4141 21.9521C19.2184 21.9525 19.4868 20.8762 19.4456 20.1842Z" fill="#1B4B4C"/>
<path id="Vector_28" d="M18.9129 19.348C17.7764 19.099 17.3617 21.3903 18.4146 21.6211C19.4509 21.8487 19.8656 19.5565 18.9129 19.348Z" fill="#1B4B4C"/>
</g>
<path id="Vector_29" d="M25.6249 19.2866C25.3217 19.1633 25.0631 18.9988 24.7761 18.8461C24.4523 18.6735 24.1767 18.5692 23.996 18.2317C23.8994 18.0506 23.9908 17.7628 24.1577 17.6525C24.5469 17.395 24.996 17.5078 25.3941 17.6998C25.8262 17.9079 26.1058 18.1791 26.3092 18.6128C26.5064 19.0324 26.0246 19.4491 25.6249 19.2866Z" fill="#1B4B4C"/>
<path id="Vector_30" d="M18.185 18.0607C18.5119 18.0538 18.8122 17.9928 19.1348 17.9519C19.499 17.9063 19.7936 17.9075 20.0826 17.6565C20.2378 17.5219 20.2548 17.2208 20.1384 17.0579C19.8668 16.6784 19.4072 16.6238 18.9666 16.6606C18.4885 16.701 18.1304 16.8542 17.7856 17.1868C17.4518 17.509 17.7537 18.07 18.185 18.0607Z" fill="#1B4B4C"/>
<path id="Vector_31" d="M23.1271 27.4233C22.9322 27.5664 22.7289 27.7725 22.467 27.7576C22.2156 27.7434 21.94 27.5902 21.7245 27.4698C21.7031 27.458 21.6768 27.4787 21.6886 27.5021C21.8353 27.8024 22.2015 28.0292 22.5406 28.0178C22.872 28.0069 23.0713 27.7499 23.1917 27.4653C23.2083 27.4253 23.1557 27.4027 23.1271 27.4233Z" fill="#1B4B4C"/>
<g id="Group_29">
<g id="Group_30">
<path id="Vector_32" d="M22.6776 25.1789C22.1901 25.7427 21.5548 25.9986 20.9016 26.0321C20.6098 26.0491 20.3099 26.0167 20.0209 25.9488C19.9635 25.9395 19.9069 25.925 19.8564 25.906C19.805 25.8923 19.759 25.8797 19.7032 25.8599C19.6216 25.8361 19.5852 25.7605 19.5823 25.6797L19.5832 25.6744C19.5872 25.6485 19.5908 25.6275 19.6001 25.6025C19.6001 25.6025 19.6001 25.6025 19.6009 25.5972L19.611 25.535C19.6737 24.9828 19.8451 24.1539 19.8451 24.1539C19.6296 24.2262 18.54 24.5427 18.5969 24.2573C19.0743 21.8989 19.6054 19.2754 20.5787 17.0289C20.607 16.9533 20.7242 16.9881 20.7064 17.0657C20.3374 19.3509 19.569 21.5558 19.1616 23.8451C19.506 23.7671 20.0718 23.6123 20.3588 23.6583C20.434 23.6919 19.9991 25.2545 19.991 25.5046C19.991 25.5046 19.9894 25.5152 19.9918 25.5317C20.8992 25.7799 21.6352 25.5992 22.6198 25.1049C22.6788 25.0718 22.7285 25.1279 22.6776 25.1789Z" fill="#1B4B4C"/>
</g>
</g>
</g>
<path id="Vector_33" d="M32.6094 24.2927C30.6479 23.5284 30.2623 16.6722 30.2623 16.6722C30.2623 16.6722 30.0097 19.5403 29.4786 19.4207C28.9479 19.3011 27.1133 15.1998 27.1287 12.3834C27.1287 12.3834 24.4129 13.8708 21.7886 14.3918C19.1642 14.9124 16.7023 15.2588 16.7427 14.8255C16.8632 13.5333 18.4334 10.0137 20.3012 8.98345C22.4514 7.79798 25.1381 6.76407 29.1573 8.75387C33.1769 10.7437 33.9214 12.9736 34.3429 15.1089C34.7649 17.2442 33.3305 24.5736 32.6094 24.2927Z" fill="#1B4B4C"/>
<path id="Vector_34" d="M16.6851 14.3178C16.6851 14.3178 22.9766 14.0082 27.556 16.3512C29.357 17.272 33.8952 21.8607 33.8952 21.8607C33.8952 21.8607 35.0601 17.8192 34.1074 13.6573C32.6665 7.37026 24.8775 6.29837 21.22 8.021C17.936 9.57064 16.6851 14.3178 16.6851 14.3178ZM20.9682 13.2855C20.9682 13.2855 21.6998 10.8357 24.3342 11.4566C26.6239 11.9962 26.9222 13.5814 26.858 14.6432C26.858 14.6432 23.9482 13.3825 20.9682 13.2855Z" fill="#6EBEB5"/>
<g id="Group_31">
<path id="Vector_35" d="M30.4798 23.5178C30.4798 23.5178 32.9405 20.1668 34.4663 21.0523C35.9925 21.9375 34.0863 26.8334 32.2562 27.4667C30.426 28.1001 29.8068 26.4171 29.8068 26.4171L30.4798 23.5178Z" fill="white"/>
<path id="Vector_36" d="M33.8851 22.442C33.9142 22.4399 33.919 22.4808 33.8935 22.4905C32.6094 22.9763 31.9122 24.1408 31.4147 25.3529C31.8043 24.8909 32.3253 24.6448 32.9457 25.11C32.9781 25.1346 32.9453 25.1856 32.9098 25.1771C32.3912 25.0534 32.0129 25.135 31.6511 25.5441C31.3949 25.8339 31.2158 26.2037 31.0295 26.5404C30.9672 26.6528 30.7631 26.5873 30.8096 26.4571C30.8128 26.4478 30.8169 26.4377 30.8205 26.428C30.8258 24.8056 32.1398 22.5648 33.8851 22.442Z" fill="#1B4B4C"/>
</g>
</g>
</g>
</g>
</g>
</g>
</g>
</g>
</g>
</g>
</g>
</svg>
