<svg width="26" height="25" viewBox="0 0 26 25" fill="none" xmlns="http://www.w3.org/2000/svg">
<g id="Frame">
<path id="Vector" fill-rule="evenodd" clip-rule="evenodd" d="M8.51178 4.72615C7.26687 4.05487 5.84231 3.67389 4.32878 3.67389C4.24325 3.67389 4.17393 3.74322 4.17393 3.82875C4.17393 5.34229 4.55491 6.76685 5.2262 8.01178C3.81244 8.05289 2.38822 8.43524 1.07745 9.192C1.00339 9.23476 0.978012 9.32947 1.02077 9.40353C1.77754 10.7143 2.81976 11.7575 4.02356 12.5C2.81976 13.2425 1.77755 14.2857 1.02078 15.5965C0.978017 15.6705 1.00339 15.7652 1.07745 15.808C2.38822 16.5648 3.81242 16.9471 5.22618 16.9882C4.55491 18.2331 4.17393 19.6576 4.17393 21.1713C4.17393 21.2567 4.24325 21.326 4.32878 21.326C5.84231 21.326 7.26687 20.9451 8.51178 20.2738C8.55289 21.6876 8.93524 23.1118 9.692 24.4225C9.73476 24.4965 9.82947 24.522 9.90353 24.4793C11.2143 23.7224 12.2575 22.6802 13 21.4764C13.7425 22.6802 14.7857 23.7224 16.0965 24.4793C16.1705 24.522 16.2652 24.4965 16.308 24.4225C17.0648 23.1118 17.4471 21.6876 17.4882 20.2738C18.7331 20.9451 20.1576 21.326 21.6713 21.326C21.7567 21.326 21.826 21.2567 21.826 21.1713C21.826 19.6576 21.4451 18.2331 20.7738 16.9882C22.1876 16.9471 23.6118 16.5648 24.9225 15.808C24.9965 15.7652 25.022 15.6705 24.9793 15.5965C24.2224 14.2857 23.1802 13.2425 21.9764 12.5C23.1802 11.7575 24.2225 10.7143 24.9793 9.40353C25.022 9.32947 24.9965 9.23476 24.9225 9.192C23.6118 8.43524 22.1876 8.05289 20.7738 8.01178C21.4451 6.76685 21.826 5.34229 21.826 3.82875C21.826 3.74322 21.7567 3.67389 21.6713 3.67389C20.1576 3.67389 18.7331 4.05487 17.4882 4.72616C17.4471 3.3124 17.0648 1.88821 16.308 0.577448C16.2652 0.503387 16.1705 0.478012 16.0965 0.520771C14.7857 1.27754 13.7425 2.31976 13 3.52356C12.2575 2.31976 11.2143 1.27754 9.90353 0.520771C9.82947 0.478012 9.73476 0.503387 9.69202 0.577448C8.93524 1.88821 8.55289 3.3124 8.51178 4.72615ZM12.1727 11.0671C11.5247 10.3147 10.7661 9.69193 9.93587 9.20904C9.25066 8.00445 8.86827 6.64756 8.82247 5.26427C9.99753 5.99558 10.9814 7.00516 11.682 8.20085C11.6851 9.16135 11.8452 10.1297 12.1727 11.0671ZM11.698 7.64082C10.9595 6.52311 9.97356 5.58327 8.81822 4.89938C8.8316 3.53031 9.17582 2.14626 9.88331 0.868309C11.135 1.62131 12.1251 2.64782 12.8212 3.82678C12.1626 4.99675 11.7787 6.30362 11.698 7.64082ZM12.0174 8.83287C12.0965 9.84713 12.3593 10.8603 12.8187 11.8233C12.7351 10.7596 12.456 9.7508 12.0174 8.83287ZM9.33302 11.5174C10.3472 11.5966 11.3602 11.8593 12.3232 12.3186C11.2595 12.235 10.2509 11.956 9.33302 11.5174ZM8.70096 11.182C9.66142 11.1851 10.6298 11.3452 11.5671 11.6727C10.8148 11.0247 10.1919 10.2661 9.70904 9.43587C8.50447 8.75066 7.14762 8.36827 5.76433 8.32247C6.49565 9.49753 7.50524 10.4814 8.70096 11.182ZM5.39944 8.3182C6.08335 9.47356 7.02318 10.4595 8.14089 11.198C6.80367 11.2787 5.49676 11.6626 4.3268 12.3212C3.14784 11.6251 2.12131 10.635 1.36831 9.38329C2.64628 8.6758 4.03035 8.33158 5.39944 8.3182ZM5.57818 8.00858C6.92071 8.02318 8.24447 8.34415 9.44285 8.94285C8.84413 7.74445 8.52318 6.42067 8.50858 5.07813C7.31624 4.40518 5.94551 4.01125 4.48502 3.98498C4.51129 5.44549 4.90524 6.81624 5.57818 8.00858ZM17.1818 4.89938C17.1684 3.53031 16.8242 2.14627 16.1167 0.868309C14.865 1.62131 13.8749 2.64782 13.1788 3.82678C13.8374 4.99675 14.2213 6.30364 14.302 7.64084C15.0405 6.52313 16.0264 5.58329 17.1818 4.89938ZM14.318 8.20089C15.0186 7.00518 16.0025 5.9956 17.1775 5.26429C17.1317 6.64758 16.7493 8.00445 16.0641 9.20904C15.2339 9.69195 14.4753 10.3147 13.8273 11.0671C14.1548 10.1297 14.3149 9.16136 14.318 8.20089ZM13.1813 11.8232C13.6408 10.8602 13.9035 9.84715 13.9826 8.83293C13.544 9.75084 13.265 10.7595 13.1813 11.8232ZM14.0081 8.11786C13.5306 8.95118 13.185 9.86985 13 10.8453C12.815 9.86984 12.4694 8.95116 11.9919 8.11782C12.0007 6.73204 12.348 5.36578 13 4.14493C13.652 5.3658 13.9993 6.73205 14.0081 8.11786ZM17.4914 5.07815C18.6838 4.4052 20.0545 4.01125 21.5149 3.98498C21.4887 5.44549 21.0947 6.81624 20.4218 8.00858C19.0793 8.02318 17.7555 8.34413 16.5571 8.94285C17.1559 7.74445 17.4768 6.42067 17.4914 5.07815ZM20.2356 8.32247C18.8524 8.36827 17.4955 8.75066 16.291 9.43587C15.8081 10.2661 15.1852 11.0247 14.4329 11.6727C15.3703 11.3452 16.3386 11.1851 17.2991 11.182C18.4948 10.4814 19.5044 9.49753 20.2356 8.32247ZM13.6768 12.3186C14.7405 12.235 15.7491 11.956 16.667 11.5174C15.6528 11.5965 14.6398 11.8592 13.6768 12.3186ZM17.3821 11.4919C18.7679 11.5007 20.1342 11.848 21.3551 12.5C20.1342 13.152 18.768 13.4993 17.3822 13.5081C16.5488 13.0305 15.6301 12.685 14.6546 12.5C15.6301 12.315 16.5488 11.9694 17.3821 11.4919ZM13.6767 12.6813C14.6397 13.1407 15.6529 13.4035 16.6671 13.4826C15.7492 13.044 14.7404 12.7649 13.6767 12.6813ZM17.2991 13.818C18.4949 14.5186 19.5044 15.5025 20.2356 16.6775C18.8524 16.6317 17.4955 16.2493 16.291 15.5641C15.8081 14.7339 15.1853 13.9753 14.4329 13.3273C15.3703 13.6548 16.3387 13.8149 17.2991 13.818ZM20.6005 16.6818C19.9167 15.5264 18.9769 14.5405 17.8592 13.802C19.1964 13.7213 20.5033 13.3374 21.6733 12.6788C22.8522 13.3749 23.8787 14.365 24.6316 15.6167C23.3538 16.3242 21.9696 16.6684 20.6005 16.6818ZM20.4218 16.9914C19.0793 16.9768 17.7555 16.6559 16.5571 16.0571C17.1559 17.2555 17.4768 18.5793 17.4914 19.9218C18.6838 20.5947 20.0545 20.9887 21.5149 21.0149C21.4887 19.5545 21.0947 18.1837 20.4218 16.9914ZM17.1775 19.7356C17.1317 18.3524 16.7493 16.9955 16.0641 15.791C15.2339 15.3081 14.4753 14.6852 13.8273 13.9329C14.1548 14.8702 14.3149 15.8386 14.318 16.799C15.0186 17.9948 16.0025 19.0044 17.1775 19.7356ZM13.1814 13.1768C13.265 14.2404 13.544 15.2491 13.9826 16.167C13.9034 15.1528 13.6407 14.1397 13.1814 13.1768ZM14.0081 16.8821C13.9993 18.2679 13.652 19.6342 13 20.8551C12.348 19.6342 12.0007 18.2679 11.9919 16.8821C12.4694 16.0488 12.815 15.1301 13 14.1546C13.185 15.1301 13.5306 16.0487 14.0081 16.8821ZM12.0174 16.167C12.0965 15.1528 12.3593 14.1397 12.8187 13.1768C12.735 14.2404 12.456 15.2491 12.0174 16.167ZM11.682 16.7991C10.9814 17.9948 9.99753 19.0044 8.82247 19.7356C8.86827 18.3524 9.25066 16.9955 9.93587 15.791C10.7661 15.3081 11.5247 14.6852 12.1727 13.9329C11.8452 14.8703 11.6851 15.8386 11.682 16.7991ZM8.8182 20.1005C9.97356 19.4167 10.9595 18.4768 11.698 17.3591C11.7787 18.6964 12.1626 20.0033 12.8212 21.1733C12.1251 22.3522 11.135 23.3787 9.88329 24.1316C9.1758 22.8536 8.83158 21.4696 8.8182 20.1005ZM8.50858 19.9218C8.52318 18.5793 8.84415 17.2555 9.44285 16.0571C8.24445 16.6559 6.92067 16.9768 5.57816 16.9914C4.90522 18.1837 4.51129 19.5545 4.48502 21.0149C5.94551 20.9887 7.31624 20.5947 8.50858 19.9218ZM5.76429 16.6775C7.14758 16.6317 8.50445 16.2493 9.70904 15.5641C10.1919 14.7339 10.8147 13.9753 11.5671 13.3273C10.6297 13.6548 9.66135 13.8149 8.70087 13.818C7.50518 14.5186 6.4956 15.5025 5.76429 16.6775ZM8.61784 13.5081C7.23206 13.4993 5.8658 13.152 4.64495 12.5C5.86582 11.848 7.23211 11.5007 8.61793 11.4919C9.45125 11.9694 10.3699 12.315 11.3454 12.5C10.3699 12.685 9.45118 13.0305 8.61784 13.5081ZM9.33289 13.4826C10.2508 13.044 11.2596 12.7649 12.3233 12.6813C11.3603 13.1407 10.3471 13.4035 9.33289 13.4826ZM8.14082 13.802C7.02313 14.5405 6.08329 15.5264 5.3994 16.6818C4.03033 16.6684 2.64627 16.3242 1.36831 15.6167C2.12132 14.365 3.14784 13.3749 4.3268 12.6788C5.49675 13.3374 6.80364 13.7213 8.14082 13.802ZM14.302 17.3591C15.0405 18.4768 16.0264 19.4167 17.1818 20.1005C17.1684 21.4696 16.8242 22.8536 16.1167 24.1316C14.865 23.3787 13.8749 22.3522 13.1788 21.1733C13.8374 20.0033 14.2213 18.6964 14.302 17.3591ZM17.8591 11.198C18.9768 10.4595 19.9167 9.47356 20.6005 8.3182C21.9696 8.33158 23.3536 8.6758 24.6316 9.38329C23.8787 10.635 22.8522 11.6251 21.6733 12.3212C20.5033 11.6626 19.1964 11.2787 17.8591 11.198ZM15.6845 9.81553C14.8457 10.3912 14.0997 11.1252 13.4954 12.0046C14.3748 11.4003 15.1088 10.6543 15.6845 9.81553ZM15.6845 15.1845C15.1088 14.3457 14.3748 13.5997 13.4954 12.9954C14.0997 13.8748 14.8457 14.6088 15.6845 15.1845ZM12.5046 12.9954C11.9003 13.8748 11.1543 14.6088 10.3155 15.1845C10.8912 14.3457 11.6252 13.5997 12.5046 12.9954ZM12.5046 12.0046C11.6252 11.4003 10.8912 10.6543 10.3155 9.81553C11.1543 10.3912 11.9003 11.1252 12.5046 12.0046Z" fill="#ECECEC" stroke="#ECECEC"/>
<path id="Vector_2" fill-rule="evenodd" clip-rule="evenodd" d="M8.51178 4.72615C7.26687 4.05487 5.84231 3.67389 4.32878 3.67389C4.24325 3.67389 4.17393 3.74322 4.17393 3.82875C4.17393 5.34229 4.55491 6.76685 5.2262 8.01178C3.81244 8.05289 2.38822 8.43524 1.07745 9.192C1.00339 9.23476 0.978012 9.32947 1.02077 9.40353C1.77754 10.7143 2.81976 11.7575 4.02356 12.5C2.81976 13.2425 1.77755 14.2857 1.02078 15.5965C0.978017 15.6705 1.00339 15.7652 1.07745 15.808C2.38822 16.5648 3.81242 16.9471 5.22618 16.9882C4.55491 18.2331 4.17393 19.6576 4.17393 21.1713C4.17393 21.2567 4.24325 21.326 4.32878 21.326C5.84231 21.326 7.26687 20.9451 8.51178 20.2738C8.55289 21.6876 8.93524 23.1118 9.692 24.4225C9.73476 24.4965 9.82947 24.522 9.90353 24.4793C11.2143 23.7224 12.2575 22.6802 13 21.4764C13.7425 22.6802 14.7857 23.7224 16.0965 24.4793C16.1705 24.522 16.2652 24.4965 16.308 24.4225C17.0648 23.1118 17.4471 21.6876 17.4882 20.2738C18.7331 20.9451 20.1576 21.326 21.6713 21.326C21.7567 21.326 21.826 21.2567 21.826 21.1713C21.826 19.6576 21.4451 18.2331 20.7738 16.9882C22.1876 16.9471 23.6118 16.5648 24.9225 15.808C24.9965 15.7652 25.022 15.6705 24.9793 15.5965C24.2224 14.2857 23.1802 13.2425 21.9764 12.5C23.1802 11.7575 24.2225 10.7143 24.9793 9.40353C25.022 9.32947 24.9965 9.23476 24.9225 9.192C23.6118 8.43524 22.1876 8.05289 20.7738 8.01178C21.4451 6.76685 21.826 5.34229 21.826 3.82875C21.826 3.74322 21.7567 3.67389 21.6713 3.67389C20.1576 3.67389 18.7331 4.05487 17.4882 4.72616C17.4471 3.3124 17.0648 1.88821 16.308 0.577448C16.2652 0.503387 16.1705 0.478012 16.0965 0.520771C14.7857 1.27754 13.7425 2.31976 13 3.52356C12.2575 2.31976 11.2143 1.27754 9.90353 0.520771C9.82947 0.478012 9.73476 0.503387 9.69202 0.577448C8.93524 1.88821 8.55289 3.3124 8.51178 4.72615ZM12.1727 11.0671C11.5247 10.3147 10.7661 9.69193 9.93587 9.20904C9.25066 8.00445 8.86827 6.64756 8.82247 5.26427C9.99753 5.99558 10.9814 7.00516 11.682 8.20085C11.6851 9.16135 11.8452 10.1297 12.1727 11.0671ZM11.698 7.64082C10.9595 6.52311 9.97356 5.58327 8.81822 4.89938C8.8316 3.53031 9.17582 2.14626 9.88331 0.868309C11.135 1.62131 12.1251 2.64782 12.8212 3.82678C12.1626 4.99675 11.7787 6.30362 11.698 7.64082ZM12.0174 8.83287C12.0965 9.84713 12.3593 10.8603 12.8187 11.8233C12.7351 10.7596 12.456 9.7508 12.0174 8.83287ZM9.33302 11.5174C10.3472 11.5966 11.3602 11.8593 12.3232 12.3186C11.2595 12.235 10.2509 11.956 9.33302 11.5174ZM8.70096 11.182C9.66142 11.1851 10.6298 11.3452 11.5671 11.6727C10.8148 11.0247 10.1919 10.2661 9.70904 9.43587C8.50447 8.75066 7.14762 8.36827 5.76433 8.32247C6.49565 9.49753 7.50524 10.4814 8.70096 11.182ZM5.39944 8.3182C6.08335 9.47356 7.02318 10.4595 8.14089 11.198C6.80367 11.2787 5.49676 11.6626 4.3268 12.3212C3.14784 11.6251 2.12131 10.635 1.36831 9.38329C2.64628 8.6758 4.03035 8.33158 5.39944 8.3182ZM5.57818 8.00858C6.92071 8.02318 8.24447 8.34415 9.44285 8.94285C8.84413 7.74445 8.52318 6.42067 8.50858 5.07813C7.31624 4.40518 5.94551 4.01125 4.48502 3.98498C4.51129 5.44549 4.90524 6.81624 5.57818 8.00858ZM17.1818 4.89938C17.1684 3.53031 16.8242 2.14627 16.1167 0.868309C14.865 1.62131 13.8749 2.64782 13.1788 3.82678C13.8374 4.99675 14.2213 6.30364 14.302 7.64084C15.0405 6.52313 16.0264 5.58329 17.1818 4.89938ZM14.318 8.20089C15.0186 7.00518 16.0025 5.9956 17.1775 5.26429C17.1317 6.64758 16.7493 8.00445 16.0641 9.20904C15.2339 9.69195 14.4753 10.3147 13.8273 11.0671C14.1548 10.1297 14.3149 9.16136 14.318 8.20089ZM13.1813 11.8232C13.6408 10.8602 13.9035 9.84715 13.9826 8.83293C13.544 9.75084 13.265 10.7595 13.1813 11.8232ZM14.0081 8.11786C13.5306 8.95118 13.185 9.86985 13 10.8453C12.815 9.86984 12.4694 8.95116 11.9919 8.11782C12.0007 6.73204 12.348 5.36578 13 4.14493C13.652 5.3658 13.9993 6.73205 14.0081 8.11786ZM17.4914 5.07815C18.6838 4.4052 20.0545 4.01125 21.5149 3.98498C21.4887 5.44549 21.0947 6.81624 20.4218 8.00858C19.0793 8.02318 17.7555 8.34413 16.5571 8.94285C17.1559 7.74445 17.4768 6.42067 17.4914 5.07815ZM20.2356 8.32247C18.8524 8.36827 17.4955 8.75066 16.291 9.43587C15.8081 10.2661 15.1852 11.0247 14.4329 11.6727C15.3703 11.3452 16.3386 11.1851 17.2991 11.182C18.4948 10.4814 19.5044 9.49753 20.2356 8.32247ZM13.6768 12.3186C14.7405 12.235 15.7491 11.956 16.667 11.5174C15.6528 11.5965 14.6398 11.8592 13.6768 12.3186ZM17.3821 11.4919C18.7679 11.5007 20.1342 11.848 21.3551 12.5C20.1342 13.152 18.768 13.4993 17.3822 13.5081C16.5488 13.0305 15.6301 12.685 14.6546 12.5C15.6301 12.315 16.5488 11.9694 17.3821 11.4919ZM13.6767 12.6813C14.6397 13.1407 15.6529 13.4035 16.6671 13.4826C15.7492 13.044 14.7404 12.7649 13.6767 12.6813ZM17.2991 13.818C18.4949 14.5186 19.5044 15.5025 20.2356 16.6775C18.8524 16.6317 17.4955 16.2493 16.291 15.5641C15.8081 14.7339 15.1853 13.9753 14.4329 13.3273C15.3703 13.6548 16.3387 13.8149 17.2991 13.818ZM20.6005 16.6818C19.9167 15.5264 18.9769 14.5405 17.8592 13.802C19.1964 13.7213 20.5033 13.3374 21.6733 12.6788C22.8522 13.3749 23.8787 14.365 24.6316 15.6167C23.3538 16.3242 21.9696 16.6684 20.6005 16.6818ZM20.4218 16.9914C19.0793 16.9768 17.7555 16.6559 16.5571 16.0571C17.1559 17.2555 17.4768 18.5793 17.4914 19.9218C18.6838 20.5947 20.0545 20.9887 21.5149 21.0149C21.4887 19.5545 21.0947 18.1837 20.4218 16.9914ZM17.1775 19.7356C17.1317 18.3524 16.7493 16.9955 16.0641 15.791C15.2339 15.3081 14.4753 14.6852 13.8273 13.9329C14.1548 14.8702 14.3149 15.8386 14.318 16.799C15.0186 17.9948 16.0025 19.0044 17.1775 19.7356ZM13.1814 13.1768C13.265 14.2404 13.544 15.2491 13.9826 16.167C13.9034 15.1528 13.6407 14.1397 13.1814 13.1768ZM14.0081 16.8821C13.9993 18.2679 13.652 19.6342 13 20.8551C12.348 19.6342 12.0007 18.2679 11.9919 16.8821C12.4694 16.0488 12.815 15.1301 13 14.1546C13.185 15.1301 13.5306 16.0487 14.0081 16.8821ZM12.0174 16.167C12.0965 15.1528 12.3593 14.1397 12.8187 13.1768C12.735 14.2404 12.456 15.2491 12.0174 16.167ZM11.682 16.7991C10.9814 17.9948 9.99753 19.0044 8.82247 19.7356C8.86827 18.3524 9.25066 16.9955 9.93587 15.791C10.7661 15.3081 11.5247 14.6852 12.1727 13.9329C11.8452 14.8703 11.6851 15.8386 11.682 16.7991ZM8.8182 20.1005C9.97356 19.4167 10.9595 18.4768 11.698 17.3591C11.7787 18.6964 12.1626 20.0033 12.8212 21.1733C12.1251 22.3522 11.135 23.3787 9.88329 24.1316C9.1758 22.8536 8.83158 21.4696 8.8182 20.1005ZM8.50858 19.9218C8.52318 18.5793 8.84415 17.2555 9.44285 16.0571C8.24445 16.6559 6.92067 16.9768 5.57816 16.9914C4.90522 18.1837 4.51129 19.5545 4.48502 21.0149C5.94551 20.9887 7.31624 20.5947 8.50858 19.9218ZM5.76429 16.6775C7.14758 16.6317 8.50445 16.2493 9.70904 15.5641C10.1919 14.7339 10.8147 13.9753 11.5671 13.3273C10.6297 13.6548 9.66135 13.8149 8.70087 13.818C7.50518 14.5186 6.4956 15.5025 5.76429 16.6775ZM8.61784 13.5081C7.23206 13.4993 5.8658 13.152 4.64495 12.5C5.86582 11.848 7.23211 11.5007 8.61793 11.4919C9.45125 11.9694 10.3699 12.315 11.3454 12.5C10.3699 12.685 9.45118 13.0305 8.61784 13.5081ZM9.33289 13.4826C10.2508 13.044 11.2596 12.7649 12.3233 12.6813C11.3603 13.1407 10.3471 13.4035 9.33289 13.4826ZM8.14082 13.802C7.02313 14.5405 6.08329 15.5264 5.3994 16.6818C4.03033 16.6684 2.64627 16.3242 1.36831 15.6167C2.12132 14.365 3.14784 13.3749 4.3268 12.6788C5.49675 13.3374 6.80364 13.7213 8.14082 13.802ZM14.302 17.3591C15.0405 18.4768 16.0264 19.4167 17.1818 20.1005C17.1684 21.4696 16.8242 22.8536 16.1167 24.1316C14.865 23.3787 13.8749 22.3522 13.1788 21.1733C13.8374 20.0033 14.2213 18.6964 14.302 17.3591ZM17.8591 11.198C18.9768 10.4595 19.9167 9.47356 20.6005 8.3182C21.9696 8.33158 23.3536 8.6758 24.6316 9.38329C23.8787 10.635 22.8522 11.6251 21.6733 12.3212C20.5033 11.6626 19.1964 11.2787 17.8591 11.198ZM15.6845 9.81553C14.8457 10.3912 14.0997 11.1252 13.4954 12.0046C14.3748 11.4003 15.1088 10.6543 15.6845 9.81553ZM15.6845 15.1845C15.1088 14.3457 14.3748 13.5997 13.4954 12.9954C14.0997 13.8748 14.8457 14.6088 15.6845 15.1845ZM12.5046 12.9954C11.9003 13.8748 11.1543 14.6088 10.3155 15.1845C10.8912 14.3457 11.6252 13.5997 12.5046 12.9954ZM12.5046 12.0046C11.6252 11.4003 10.8912 10.6543 10.3155 9.81553C11.1543 10.3912 11.9003 11.1252 12.5046 12.0046Z" fill="#ECECEC" stroke="#ECECEC"/>
</g>
</svg>
