<svg width="42" height="42" viewBox="0 0 42 42" fill="none" xmlns="http://www.w3.org/2000/svg">
<g id="Frame 308">
<path id="Vector" fill-rule="evenodd" clip-rule="evenodd" d="M13.5196 8.04357C11.4448 6.92479 9.07051 6.28982 6.54797 6.28982C6.40542 6.28982 6.28988 6.40536 6.28988 6.54791C6.28988 9.07048 6.92485 11.4448 8.04367 13.5196C5.68739 13.5882 3.31371 14.2254 1.12908 15.4867C1.00565 15.5579 0.963354 15.7158 1.03462 15.8392C2.29591 18.0238 4.03294 19.7625 6.03927 21C4.03294 22.2375 2.29591 23.9762 1.03463 26.1608C0.963362 26.2842 1.00565 26.4421 1.12909 26.5133C3.3137 27.7746 5.68736 28.4118 8.04364 28.4804C6.92485 30.5552 6.28988 32.9294 6.28988 35.4521C6.28988 35.5945 6.40542 35.71 6.54797 35.71C9.07051 35.71 11.4448 35.0751 13.5196 33.9564C13.5882 36.3127 14.2254 38.6864 15.4867 40.8709C15.5579 40.9942 15.7158 41.0367 15.8392 40.9655C18.0238 39.7039 19.7625 37.967 21 35.9606C22.2375 37.967 23.9762 39.7039 26.1608 40.9655C26.2842 41.0367 26.4421 40.9942 26.5133 40.8709C27.7746 38.6864 28.4118 36.3127 28.4804 33.9564C30.5552 35.0751 32.9294 35.71 35.4521 35.71C35.5945 35.71 35.71 35.5945 35.71 35.4521C35.71 32.9294 35.0751 30.5552 33.9564 28.4804C36.3127 28.4118 38.6864 27.7746 40.8709 26.5133C40.9942 26.4421 41.0367 26.2842 40.9655 26.1608C39.7039 23.9762 37.967 22.2375 35.9606 21C37.967 19.7625 39.7042 18.0238 40.9655 15.8392C41.0367 15.7158 40.9942 15.5579 40.8709 15.4867C38.6864 14.2254 36.3127 13.5882 33.9564 13.5196C35.0751 11.4448 35.71 9.07048 35.71 6.54791C35.71 6.40536 35.5945 6.28982 35.4521 6.28982C32.9294 6.28982 30.5552 6.92479 28.4804 8.04361C28.4118 5.68733 27.7746 3.31368 26.5133 1.12908C26.4421 1.00565 26.2842 0.963354 26.1608 1.03462C23.9762 2.2959 22.2375 4.03294 21 6.03927C19.7625 4.03294 18.0238 2.2959 15.8392 1.03462C15.7158 0.963354 15.5579 1.00565 15.4867 1.12908C14.2254 3.31368 13.5882 5.68733 13.5196 8.04357ZM19.6211 18.6118C18.5412 17.3579 17.2769 16.3199 15.8931 15.5151C14.7511 13.5074 14.1138 11.2459 14.0375 8.94045C15.9959 10.1593 17.6357 11.8419 18.8033 13.8348C18.8085 15.4356 19.0753 17.0495 19.6211 18.6118ZM18.83 12.9014C17.5992 11.0385 15.9559 9.47212 14.0304 8.3323C14.0527 6.05051 14.6264 3.74377 15.8055 1.61385C17.8916 2.86885 19.5418 4.5797 20.7021 6.54464C19.6044 8.49458 18.9645 10.6727 18.83 12.9014ZM19.3623 14.8881C19.4942 16.5785 19.9321 18.2671 20.6978 19.8721C20.5584 18.0993 20.0933 16.418 19.3623 14.8881ZM14.8884 19.3624C16.5786 19.4943 18.2671 19.9321 19.8719 20.6977C18.0992 20.5583 16.4181 20.0933 14.8884 19.3624ZM13.8349 18.8033C15.4357 18.8085 17.0496 19.0753 18.6118 19.6211C17.3579 18.5412 16.3199 17.2769 15.5151 15.8931C13.5075 14.7511 11.246 14.1138 8.94055 14.0375C10.1594 15.9959 11.8421 17.6357 13.8349 18.8033ZM8.33239 14.0303C9.47224 15.9559 11.0386 17.5992 12.9015 18.83C10.6728 18.9645 8.49461 19.6044 6.54467 20.7021C4.57973 19.5418 2.86885 17.8916 1.61385 15.8055C3.7438 14.6263 6.05058 14.0526 8.33239 14.0303ZM8.6303 13.5143C10.8678 13.5386 13.0741 14.0736 15.0714 15.0714C14.0735 13.0741 13.5386 10.8678 13.5143 8.63021C11.5271 7.50864 9.24251 6.85209 6.80836 6.8083C6.85215 9.24248 7.50873 11.5271 8.6303 13.5143ZM27.9696 8.3323C27.9473 6.05051 27.3736 3.74378 26.1945 1.61385C24.1084 2.86885 22.4582 4.5797 21.2979 6.54464C22.3956 8.49458 23.0355 10.6727 23.17 12.9014C24.4008 11.0385 26.0441 9.47215 27.9696 8.3323ZM23.1967 13.8348C24.3643 11.842 26.0041 10.1593 27.9625 8.94048C27.8862 11.246 27.2489 13.5074 26.1069 15.5151C24.7231 16.3199 23.4588 17.3579 22.3788 18.6118C22.9247 17.0495 23.1915 15.4356 23.1967 13.8348ZM21.3022 19.872C22.0679 18.2671 22.5058 16.5786 22.6376 14.8882C21.9067 16.4181 21.4416 18.0992 21.3022 19.872ZM22.6802 13.6964C21.8843 15.0853 21.3084 16.6164 21 18.2422C20.6917 16.6164 20.1157 15.0853 19.3198 13.6964C19.3346 11.3867 19.9134 9.10964 21 7.07488C22.0866 9.10967 22.6654 11.3868 22.6802 13.6964ZM28.4857 8.63024C30.4729 7.50867 32.7576 6.85209 35.1915 6.8083C35.1479 9.24248 34.4912 11.5271 33.3697 13.5143C31.1322 13.5386 28.9259 14.0735 26.9286 15.0714C27.9265 13.0741 28.4614 10.8678 28.4857 8.63024ZM33.0594 14.0375C30.754 14.1138 28.4925 14.7511 26.4849 15.8931C25.6801 17.2769 24.6421 18.5412 23.3882 19.6211C24.9504 19.0753 26.5643 18.8085 28.1651 18.8033C30.158 17.6357 31.8406 15.9959 33.0594 14.0375ZM22.1281 20.6977C23.9008 20.5583 25.5819 20.0933 27.1117 19.3624C25.4214 19.4942 23.7329 19.9321 22.1281 20.6977ZM28.3035 19.3198C30.6132 19.3345 32.8903 19.9134 34.9252 21C32.8903 22.0866 30.6133 22.6654 28.3036 22.6802C26.9147 21.8842 25.3836 21.3083 23.7577 20.9999C25.3835 20.6916 26.9146 20.1157 28.3035 19.3198ZM22.1278 21.3022C23.7329 22.0679 25.4215 22.5058 27.1119 22.6376C25.582 21.9066 23.9007 21.4415 22.1278 21.3022ZM28.1652 23.1967C30.1581 24.3643 31.8406 26.0041 33.0594 27.9625C30.7541 27.8862 28.4926 27.2489 26.4849 26.1069C25.6801 24.7231 24.6421 23.4588 23.3882 22.3788C24.9505 22.9247 26.5645 23.1915 28.1652 23.1967ZM33.6676 27.9696C32.5279 26.0441 30.9615 24.4008 29.0987 23.17C31.3273 23.0355 33.5055 22.3956 35.4555 21.2979C37.4203 22.4582 39.1312 24.1084 40.3861 26.1945C38.2564 27.3736 35.9494 27.9473 33.6676 27.9696ZM33.3697 28.4857C31.1322 28.4614 28.9259 27.9265 26.9286 26.9286C27.9264 28.9259 28.4613 31.1321 28.4857 33.3697C30.4729 34.4912 32.7576 35.1479 35.1915 35.1915C35.1479 32.7576 34.4912 30.4729 33.3697 28.4857ZM27.9625 33.0594C27.8862 30.754 27.2489 28.4925 26.1069 26.4849C24.7231 25.6801 23.4588 24.6421 22.3788 23.3882C22.9247 24.9504 23.1915 26.5643 23.1967 28.1651C24.3643 30.1579 26.0041 31.8406 27.9625 33.0594ZM21.3023 22.128C21.4416 23.9007 21.9067 25.5819 22.6376 27.1117C22.5057 25.4214 22.0679 23.7329 21.3023 22.128ZM22.6802 28.3035C22.6655 30.6131 22.0866 32.8903 21 34.9252C19.9134 32.8903 19.3346 30.6132 19.3198 28.3035C20.1157 26.9146 20.6917 25.3835 21 23.7577C21.3084 25.3835 21.8843 26.9146 22.6802 28.3035ZM19.3624 27.1117C19.4942 25.4214 19.9321 23.7329 20.6978 22.1279C20.5584 23.9007 20.0933 25.5819 19.3624 27.1117ZM18.8033 28.1651C17.6357 30.158 15.9959 31.8406 14.0375 33.0594C14.1138 30.754 14.7511 28.4925 15.8931 26.4849C17.2769 25.6801 18.5412 24.6421 19.6211 23.3882C19.0753 24.9504 18.8085 26.5644 18.8033 28.1651ZM14.0303 33.6676C15.9559 32.5279 17.5992 30.9614 18.83 29.0985C18.9645 31.3273 19.6044 33.5055 20.7021 35.4555C19.5418 37.4203 17.8916 39.1312 15.8055 40.3861C14.6263 38.2561 14.0526 35.9494 14.0303 33.6676ZM13.5143 33.3697C13.5386 31.1322 14.0736 28.9259 15.0714 26.9286C13.0741 27.9264 10.8678 28.4613 8.63027 28.4857C7.5087 30.4729 6.85215 32.7576 6.80836 35.1915C9.24251 35.1479 11.5271 34.4912 13.5143 33.3697ZM8.94048 27.9625C11.246 27.8862 13.5074 27.2489 15.5151 26.1069C16.3199 24.7231 17.3579 23.4588 18.6118 22.3788C17.0495 22.9247 15.4356 23.1915 13.8348 23.1967C11.842 24.3643 10.1593 26.0041 8.94048 27.9625ZM13.6964 22.6802C11.3868 22.6654 9.10967 22.0866 7.07491 21C9.1097 19.9134 11.3868 19.3345 13.6965 19.3198C15.0854 20.1157 16.6165 20.6916 18.2423 20.9999C16.6165 21.3083 15.0853 21.8842 13.6964 22.6802ZM14.8882 22.6376C16.418 21.9066 18.0993 21.4415 19.8722 21.3022C18.2672 22.0679 16.5786 22.5058 14.8882 22.6376ZM12.9014 23.17C11.0385 24.4008 9.47215 26.0441 8.33233 27.9696C6.05054 27.9473 3.74379 27.3736 1.61385 26.1945C2.86886 24.1084 4.57973 22.4582 6.54467 21.2979C8.49458 22.3956 10.6727 23.0355 12.9014 23.17ZM23.17 29.0985C24.4008 30.9614 26.0441 32.5279 27.9697 33.6676C27.9474 35.9494 27.3737 38.2561 26.1945 40.3861C24.1084 39.1312 22.4582 37.4203 21.2979 35.4555C22.3956 33.5055 23.0355 31.3273 23.17 29.0985ZM29.0985 18.83C30.9614 17.5992 32.5279 15.9559 33.6676 14.0303C35.9494 14.0526 38.2561 14.6263 40.3861 15.8055C39.1312 17.8916 37.4203 19.5418 35.4555 20.7021C33.5055 19.6044 31.3273 18.9645 29.0985 18.83ZM25.4741 16.5259C24.0762 17.4853 22.8328 18.7087 21.8257 20.1743C23.2913 19.1672 24.5147 17.9238 25.4741 16.5259ZM25.4741 25.4741C24.5147 24.0762 23.2913 22.8328 21.8257 21.8257C22.8328 23.2913 24.0762 24.5147 25.4741 25.4741ZM20.1743 21.8257C19.1672 23.2913 17.9238 24.5147 16.5259 25.4741C17.4853 24.0762 18.7087 22.8328 20.1743 21.8257ZM20.1743 20.1743C18.7087 19.1672 17.4853 17.9238 16.5259 16.5259C17.9238 17.4853 19.1672 18.7087 20.1743 20.1743Z" fill="#F8F6F3" stroke="#F8F6F3"/>
<path id="Vector_2" fill-rule="evenodd" clip-rule="evenodd" d="M13.5196 8.04357C11.4448 6.92479 9.07051 6.28982 6.54797 6.28982C6.40542 6.28982 6.28988 6.40536 6.28988 6.54791C6.28988 9.07048 6.92485 11.4448 8.04367 13.5196C5.68739 13.5882 3.31371 14.2254 1.12908 15.4867C1.00565 15.5579 0.963354 15.7158 1.03462 15.8392C2.29591 18.0238 4.03294 19.7625 6.03927 21C4.03294 22.2375 2.29591 23.9762 1.03463 26.1608C0.963362 26.2842 1.00565 26.4421 1.12909 26.5133C3.3137 27.7746 5.68736 28.4118 8.04364 28.4804C6.92485 30.5552 6.28988 32.9294 6.28988 35.4521C6.28988 35.5945 6.40542 35.71 6.54797 35.71C9.07051 35.71 11.4448 35.0751 13.5196 33.9564C13.5882 36.3127 14.2254 38.6864 15.4867 40.8709C15.5579 40.9942 15.7158 41.0367 15.8392 40.9655C18.0238 39.7039 19.7625 37.967 21 35.9606C22.2375 37.967 23.9762 39.7039 26.1608 40.9655C26.2842 41.0367 26.4421 40.9942 26.5133 40.8709C27.7746 38.6864 28.4118 36.3127 28.4804 33.9564C30.5552 35.0751 32.9294 35.71 35.4521 35.71C35.5945 35.71 35.71 35.5945 35.71 35.4521C35.71 32.9294 35.0751 30.5552 33.9564 28.4804C36.3127 28.4118 38.6864 27.7746 40.8709 26.5133C40.9942 26.4421 41.0367 26.2842 40.9655 26.1608C39.7039 23.9762 37.967 22.2375 35.9606 21C37.967 19.7625 39.7042 18.0238 40.9655 15.8392C41.0367 15.7158 40.9942 15.5579 40.8709 15.4867C38.6864 14.2254 36.3127 13.5882 33.9564 13.5196C35.0751 11.4448 35.71 9.07048 35.71 6.54791C35.71 6.40536 35.5945 6.28982 35.4521 6.28982C32.9294 6.28982 30.5552 6.92479 28.4804 8.04361C28.4118 5.68733 27.7746 3.31368 26.5133 1.12908C26.4421 1.00565 26.2842 0.963354 26.1608 1.03462C23.9762 2.2959 22.2375 4.03294 21 6.03927C19.7625 4.03294 18.0238 2.2959 15.8392 1.03462C15.7158 0.963354 15.5579 1.00565 15.4867 1.12908C14.2254 3.31368 13.5882 5.68733 13.5196 8.04357ZM19.6211 18.6118C18.5412 17.3579 17.2769 16.3199 15.8931 15.5151C14.7511 13.5074 14.1138 11.2459 14.0375 8.94045C15.9959 10.1593 17.6357 11.8419 18.8033 13.8348C18.8085 15.4356 19.0753 17.0495 19.6211 18.6118ZM18.83 12.9014C17.5992 11.0385 15.9559 9.47212 14.0304 8.3323C14.0527 6.05051 14.6264 3.74377 15.8055 1.61385C17.8916 2.86885 19.5418 4.5797 20.7021 6.54464C19.6044 8.49458 18.9645 10.6727 18.83 12.9014ZM19.3623 14.8881C19.4942 16.5785 19.9321 18.2671 20.6978 19.8721C20.5584 18.0993 20.0933 16.418 19.3623 14.8881ZM14.8884 19.3624C16.5786 19.4943 18.2671 19.9321 19.8719 20.6977C18.0992 20.5583 16.4181 20.0933 14.8884 19.3624ZM13.8349 18.8033C15.4357 18.8085 17.0496 19.0753 18.6118 19.6211C17.3579 18.5412 16.3199 17.2769 15.5151 15.8931C13.5075 14.7511 11.246 14.1138 8.94055 14.0375C10.1594 15.9959 11.8421 17.6357 13.8349 18.8033ZM8.33239 14.0303C9.47224 15.9559 11.0386 17.5992 12.9015 18.83C10.6728 18.9645 8.49461 19.6044 6.54467 20.7021C4.57973 19.5418 2.86885 17.8916 1.61385 15.8055C3.7438 14.6263 6.05058 14.0526 8.33239 14.0303ZM8.6303 13.5143C10.8678 13.5386 13.0741 14.0736 15.0714 15.0714C14.0735 13.0741 13.5386 10.8678 13.5143 8.63021C11.5271 7.50864 9.24251 6.85209 6.80836 6.8083C6.85215 9.24248 7.50873 11.5271 8.6303 13.5143ZM27.9696 8.3323C27.9473 6.05051 27.3736 3.74378 26.1945 1.61385C24.1084 2.86885 22.4582 4.5797 21.2979 6.54464C22.3956 8.49458 23.0355 10.6727 23.17 12.9014C24.4008 11.0385 26.0441 9.47215 27.9696 8.3323ZM23.1967 13.8348C24.3643 11.842 26.0041 10.1593 27.9625 8.94048C27.8862 11.246 27.2489 13.5074 26.1069 15.5151C24.7231 16.3199 23.4588 17.3579 22.3788 18.6118C22.9247 17.0495 23.1915 15.4356 23.1967 13.8348ZM21.3022 19.872C22.0679 18.2671 22.5058 16.5786 22.6376 14.8882C21.9067 16.4181 21.4416 18.0992 21.3022 19.872ZM22.6802 13.6964C21.8843 15.0853 21.3084 16.6164 21 18.2422C20.6917 16.6164 20.1157 15.0853 19.3198 13.6964C19.3346 11.3867 19.9134 9.10964 21 7.07488C22.0866 9.10967 22.6654 11.3868 22.6802 13.6964ZM28.4857 8.63024C30.4729 7.50867 32.7576 6.85209 35.1915 6.8083C35.1479 9.24248 34.4912 11.5271 33.3697 13.5143C31.1322 13.5386 28.9259 14.0735 26.9286 15.0714C27.9265 13.0741 28.4614 10.8678 28.4857 8.63024ZM33.0594 14.0375C30.754 14.1138 28.4925 14.7511 26.4849 15.8931C25.6801 17.2769 24.6421 18.5412 23.3882 19.6211C24.9504 19.0753 26.5643 18.8085 28.1651 18.8033C30.158 17.6357 31.8406 15.9959 33.0594 14.0375ZM22.1281 20.6977C23.9008 20.5583 25.5819 20.0933 27.1117 19.3624C25.4214 19.4942 23.7329 19.9321 22.1281 20.6977ZM28.3035 19.3198C30.6132 19.3345 32.8903 19.9134 34.9252 21C32.8903 22.0866 30.6133 22.6654 28.3036 22.6802C26.9147 21.8842 25.3836 21.3083 23.7577 20.9999C25.3835 20.6916 26.9146 20.1157 28.3035 19.3198ZM22.1278 21.3022C23.7329 22.0679 25.4215 22.5058 27.1119 22.6376C25.582 21.9066 23.9007 21.4415 22.1278 21.3022ZM28.1652 23.1967C30.1581 24.3643 31.8406 26.0041 33.0594 27.9625C30.7541 27.8862 28.4926 27.2489 26.4849 26.1069C25.6801 24.7231 24.6421 23.4588 23.3882 22.3788C24.9505 22.9247 26.5645 23.1915 28.1652 23.1967ZM33.6676 27.9696C32.5279 26.0441 30.9615 24.4008 29.0987 23.17C31.3273 23.0355 33.5055 22.3956 35.4555 21.2979C37.4203 22.4582 39.1312 24.1084 40.3861 26.1945C38.2564 27.3736 35.9494 27.9473 33.6676 27.9696ZM33.3697 28.4857C31.1322 28.4614 28.9259 27.9265 26.9286 26.9286C27.9264 28.9259 28.4613 31.1321 28.4857 33.3697C30.4729 34.4912 32.7576 35.1479 35.1915 35.1915C35.1479 32.7576 34.4912 30.4729 33.3697 28.4857ZM27.9625 33.0594C27.8862 30.754 27.2489 28.4925 26.1069 26.4849C24.7231 25.6801 23.4588 24.6421 22.3788 23.3882C22.9247 24.9504 23.1915 26.5643 23.1967 28.1651C24.3643 30.1579 26.0041 31.8406 27.9625 33.0594ZM21.3023 22.128C21.4416 23.9007 21.9067 25.5819 22.6376 27.1117C22.5057 25.4214 22.0679 23.7329 21.3023 22.128ZM22.6802 28.3035C22.6655 30.6131 22.0866 32.8903 21 34.9252C19.9134 32.8903 19.3346 30.6132 19.3198 28.3035C20.1157 26.9146 20.6917 25.3835 21 23.7577C21.3084 25.3835 21.8843 26.9146 22.6802 28.3035ZM19.3624 27.1117C19.4942 25.4214 19.9321 23.7329 20.6978 22.1279C20.5584 23.9007 20.0933 25.5819 19.3624 27.1117ZM18.8033 28.1651C17.6357 30.158 15.9959 31.8406 14.0375 33.0594C14.1138 30.754 14.7511 28.4925 15.8931 26.4849C17.2769 25.6801 18.5412 24.6421 19.6211 23.3882C19.0753 24.9504 18.8085 26.5644 18.8033 28.1651ZM14.0303 33.6676C15.9559 32.5279 17.5992 30.9614 18.83 29.0985C18.9645 31.3273 19.6044 33.5055 20.7021 35.4555C19.5418 37.4203 17.8916 39.1312 15.8055 40.3861C14.6263 38.2561 14.0526 35.9494 14.0303 33.6676ZM13.5143 33.3697C13.5386 31.1322 14.0736 28.9259 15.0714 26.9286C13.0741 27.9264 10.8678 28.4613 8.63027 28.4857C7.5087 30.4729 6.85215 32.7576 6.80836 35.1915C9.24251 35.1479 11.5271 34.4912 13.5143 33.3697ZM8.94048 27.9625C11.246 27.8862 13.5074 27.2489 15.5151 26.1069C16.3199 24.7231 17.3579 23.4588 18.6118 22.3788C17.0495 22.9247 15.4356 23.1915 13.8348 23.1967C11.842 24.3643 10.1593 26.0041 8.94048 27.9625ZM13.6964 22.6802C11.3868 22.6654 9.10967 22.0866 7.07491 21C9.1097 19.9134 11.3868 19.3345 13.6965 19.3198C15.0854 20.1157 16.6165 20.6916 18.2423 20.9999C16.6165 21.3083 15.0853 21.8842 13.6964 22.6802ZM14.8882 22.6376C16.418 21.9066 18.0993 21.4415 19.8722 21.3022C18.2672 22.0679 16.5786 22.5058 14.8882 22.6376ZM12.9014 23.17C11.0385 24.4008 9.47215 26.0441 8.33233 27.9696C6.05054 27.9473 3.74379 27.3736 1.61385 26.1945C2.86886 24.1084 4.57973 22.4582 6.54467 21.2979C8.49458 22.3956 10.6727 23.0355 12.9014 23.17ZM23.17 29.0985C24.4008 30.9614 26.0441 32.5279 27.9697 33.6676C27.9474 35.9494 27.3737 38.2561 26.1945 40.3861C24.1084 39.1312 22.4582 37.4203 21.2979 35.4555C22.3956 33.5055 23.0355 31.3273 23.17 29.0985ZM29.0985 18.83C30.9614 17.5992 32.5279 15.9559 33.6676 14.0303C35.9494 14.0526 38.2561 14.6263 40.3861 15.8055C39.1312 17.8916 37.4203 19.5418 35.4555 20.7021C33.5055 19.6044 31.3273 18.9645 29.0985 18.83ZM25.4741 16.5259C24.0762 17.4853 22.8328 18.7087 21.8257 20.1743C23.2913 19.1672 24.5147 17.9238 25.4741 16.5259ZM25.4741 25.4741C24.5147 24.0762 23.2913 22.8328 21.8257 21.8257C22.8328 23.2913 24.0762 24.5147 25.4741 25.4741ZM20.1743 21.8257C19.1672 23.2913 17.9238 24.5147 16.5259 25.4741C17.4853 24.0762 18.7087 22.8328 20.1743 21.8257ZM20.1743 20.1743C18.7087 19.1672 17.4853 17.9238 16.5259 16.5259C17.9238 17.4853 19.1672 18.7087 20.1743 20.1743Z" fill="#F8F6F3" stroke="#F8F6F3"/>
</g>
</svg>
