<svg width="51" height="51" viewBox="0 0 51 51" fill="none" xmlns="http://www.w3.org/2000/svg">
<g id="Group">
<path id="Vector" d="M25.155 50.3003C38.9621 50.3003 50.155 39.1074 50.155 25.3003C50.155 11.4932 38.9621 0.300293 25.155 0.300293C11.3479 0.300293 0.155029 11.4932 0.155029 25.3003C0.155029 39.1074 11.3479 50.3003 25.155 50.3003Z" fill="#D4CAFF"/>
<g id="Group_2">
<g id="Clip path group">
<mask id="mask0_153_10107" style="mask-type:luminance" maskUnits="userSpaceOnUse" x="0" y="0" width="51" height="51">
<g id="SVGID_00000060710544682789853510000015210249745295812031_">
<path id="Vector_2" d="M25.155 50.3003C38.9621 50.3003 50.155 39.1074 50.155 25.3003C50.155 11.4932 38.9621 0.300293 25.155 0.300293C11.3479 0.300293 0.155029 11.4932 0.155029 25.3003C0.155029 39.1074 11.3479 50.3003 25.155 50.3003Z" fill="white"/>
</g>
</mask>
<g mask="url(#mask0_153_10107)">
<g id="Group_3">
<g id="Group_4">
<g id="Group_5">
<g id="Group_6">
<path id="Vector_3" d="M33.4226 10.9391C31.1038 8.95977 25.2047 6.87701 20.1961 12.6863C13.0828 20.937 17.5264 41.3458 18.8578 44.3954C18.8578 44.3954 32.5568 48.2081 43.8756 40.0355C43.8756 40.0355 36.397 26.623 36.9224 19.3877C37.2268 15.1963 35.1202 12.3881 33.4226 10.9391Z" fill="#1B4B4C"/>
<path id="Vector_4" d="M38.7012 27.0629C38.751 27.1736 38.7966 27.286 38.8476 27.3963C39.4999 28.7964 40.2687 30.1359 41.1555 31.3905C42.001 32.5868 42.9189 33.7331 44.0656 34.6365C44.0963 34.6607 44.1391 34.6158 44.1084 34.5896C42.9642 33.6316 42.1287 32.3573 41.3539 31.0792C40.5961 29.8295 39.9077 28.5312 39.2962 27.1978C38.0566 24.4939 37.0995 21.6003 36.5494 18.653C36.5385 18.5952 36.4415 18.6106 36.4483 18.67C36.496 19.0875 36.5534 19.5026 36.6173 19.9157C36.5853 19.9084 36.549 19.929 36.5566 19.9767C37.0202 22.7474 37.5586 25.4586 38.5582 28.0773C39.5428 30.6573 40.9226 33.029 42.5357 35.2342C43.4395 36.4698 44.4071 37.6509 45.4503 38.7632C45.4665 38.7806 45.4903 38.7535 45.4754 38.7361C42.5317 35.3252 40.3451 31.3019 38.7012 27.0629Z" fill="#1B4B4C"/>
<path id="Vector_5" d="M22.5306 11.305C16.0374 16.2316 14.6733 25.0275 15.2525 32.6973C15.4303 35.0525 15.7686 37.4105 16.3789 39.6848C16.3899 39.7256 16.4497 39.7103 16.442 39.6686C15.6878 35.6179 15.4239 31.5829 15.7884 27.4542C16.1259 23.6294 16.8345 19.6438 18.6549 16.2163C19.6326 14.3752 20.9329 12.6647 22.5876 11.4097C22.6479 11.364 22.5921 11.2586 22.5306 11.305Z" fill="#1B4B4C"/>
</g>
<g id="Group_7">
<g id="Group_8">
<path id="Vector_6" d="M49.0532 84.405H5.78611C5.60463 82.7519 12.232 47.5923 20.0166 36.2889C20.8998 35.0064 28.4661 34.0727 31.244 37.263C45.9571 54.1595 49.4089 83.9992 49.0532 84.405Z" fill="#6EBEB5"/>
</g>
<g id="Group_9">
<path id="Vector_7" d="M18.8558 52.4481C18.4197 52.6696 17.7015 52.8552 17.4064 52.3188C17.1101 51.7921 17.5733 51.0557 17.8433 50.6321C18.1315 50.1839 18.8461 49.3537 19.6031 48.8946C20.1839 48.4871 20.8056 48.3242 21.2744 48.8137C22.3132 49.9058 19.6577 52.0363 18.8558 52.4481Z" fill="#1B4B4C"/>
<path id="Vector_8" d="M33.6291 47.2226C33.3971 47.6535 32.9133 48.2153 32.3648 47.9433C31.8212 47.6798 31.7812 46.8108 31.7614 46.3088C31.7424 45.7761 31.8556 44.6868 32.2157 43.8776C32.4602 43.2119 32.8777 42.7233 33.5422 42.8578C35.0183 43.1626 34.0523 46.4268 33.6291 47.2226Z" fill="#1B4B4C"/>
<path id="Vector_9" d="M38.5076 48.0953C37.9822 49.1462 37.1698 50.1526 36.2684 49.9101C35.739 49.7686 35.4237 48.4591 36.1916 46.5958C36.4059 46.0744 36.6726 45.6419 36.9515 45.2983C37.4931 46.2158 38.0105 47.1495 38.5076 48.0953Z" fill="#1B4B4C"/>
<path id="Vector_10" d="M22.0376 43.8861C21.7898 44.2297 21.2785 44.8263 20.7854 44.7737C20.3202 44.724 20.2959 44.2184 20.3549 43.8615C20.42 43.4694 20.6128 42.8163 20.9192 42.2726C21.2542 41.5924 21.7732 41.0374 22.4656 41.107C23.8362 41.2424 22.3565 43.4432 22.0376 43.8861Z" fill="#1B4B4C"/>
<path id="Vector_11" d="M35.6884 52.4061C35.7519 52.8249 35.8044 53.609 35.4152 53.9162C35.0482 54.206 34.6772 53.862 34.469 53.5657C34.241 53.24 33.9217 52.6389 33.7601 52.0359C33.5232 51.3156 33.5054 50.5558 34.0487 50.1209C35.1234 49.2592 35.6064 51.8666 35.6884 52.4061Z" fill="#1B4B4C"/>
</g>
</g>
<g id="Group_10">
<path id="Vector_12" d="M18.9912 39.2069C17.7633 42.3882 13.1301 53.5429 10.6117 61.5481C8.92176 66.9202 8.27829 71.4288 7.90846 72.6139C7.90846 72.6139 20.6843 68.5106 23.5609 68.5033C27.9912 68.4924 35.0971 77.7446 33.3543 78.9038C30.6139 80.7263 17.5515 86.9265 7.1199 88.873C1.4492 89.9312 -9.23419 82.7238 -8.39025 76.994C-7.20559 68.9524 7.32604 47.7554 12.8553 41.7443C15.7262 38.6236 20.4875 35.3295 18.9912 39.2069Z" fill="white"/>
<g id="Group_11">
<path id="Vector_13" d="M-9.16831 78.6936C-8.90074 84.4863 -1.65452 89.3624 2.54737 89.6203C9.7952 90.06 31.5379 83.7281 31.5379 83.7281L23.0864 67.4455C23.0864 67.4455 8.29123 72.4675 7.91574 72.609L7.91615 72.6025C8.0471 72.1709 11.6928 58.4706 13.3217 53.9308C13.409 53.6802 13.5092 53.424 13.6042 53.154C14.0731 51.8966 14.7165 50.2362 15.4271 48.442L15.4344 48.4295C15.8281 47.4364 16.2444 46.3989 16.6534 45.3738L16.6538 45.3674C18.4407 40.9286 20.1823 36.7041 20.1823 36.7041C17.6917 37.1127 15.2327 38.4219 11.1949 42.6602C7.16396 46.8916 -9.61009 69.1371 -9.16831 78.6936Z" fill="#6EBEB5"/>
<g id="Group_12">
<path id="Vector_14" d="M15.4865 40.7774C16.0205 41.161 15.9065 42.2725 15.8256 42.8258C15.691 43.7356 15.3228 44.6281 14.8382 45.4041C14.5533 45.8604 13.9991 46.8535 13.3569 46.8515C12.5825 46.8487 12.4863 46.052 12.6346 45.1915C12.5998 43.8395 13.2437 42.4038 14.0622 41.4124C14.3641 41.0494 14.9611 40.4044 15.4865 40.7774Z" fill="#1B4B4C"/>
</g>
<g id="Group_13">
<path id="Vector_15" d="M3.3909 75.01L7.90887 72.6144L7.91574 72.6084L7.91615 72.6019C8.04711 72.1702 11.6928 58.47 13.3217 53.9302C13.409 53.6796 13.5092 53.4234 13.6042 53.1534C14.0731 51.896 14.7165 50.2356 15.4271 48.4414L3.3909 75.01Z" fill="#1B4B4C"/>
</g>
</g>
</g>
<g id="Group_14">
<g id="Group_15">
<path id="Vector_16" d="M2.94022 73.4901C4.07395 73.5054 10.9196 71.6769 11.9167 72.6166C17.9932 78.3447 19.9139 77.1908 21.2073 77.9369C31.2198 83.6973 44.5898 90.4642 49.3624 90.507C56.6001 90.566 59.4827 84.492 58.2783 78.753C55.9 67.4079 40.5997 45.2877 33.6772 39.4105C30.0064 36.2987 30.2966 40.9925 31.8151 46.0941C32.7055 49.0858 34.2629 53.5339 35.8517 57.8987C37.2591 61.7869 40.9877 71.7238 41.0523 71.957L41.0519 71.9635C41.0576 71.9768 41.0641 71.9837 41.0637 71.9905C41.0685 72.0172 41.0422 72.0221 40.984 72.0055C40.6659 71.9473 32.1041 67.9119 23.4938 65.6954C20.4596 64.9141 14.141 63.8014 11.8755 64.8126C10.5284 65.4141 10.5057 66.218 10.5057 66.218C10.5057 66.218 9.42575 66.1198 8.28676 67.0575C7.53134 67.6795 7.29691 68.5598 7.29691 68.5598C7.29691 68.5598 6.11509 68.7251 5.50032 69.4098C4.76713 70.2267 4.70246 71.0912 4.70246 71.0912C3.10796 71.5173 2.94022 73.4901 2.94022 73.4901Z" fill="white"/>
</g>
<g id="Group_16">
<path id="Vector_17" d="M29.9009 67.4186C28.3165 66.8822 27.5999 66.879 27.5999 66.879L18.5923 82.0909C18.5923 82.0909 43.4035 91.0229 48.4982 91.5455C53.5926 92.0682 59.3882 88.0562 59.486 81.66C59.6234 72.671 44.9649 51.0839 37.5913 42.7363C34.212 38.9103 30.2716 36.1323 29.2672 36.7588C28.0801 37.4997 30.2356 42.3099 31.3718 45.8982C33.4691 52.5228 40.9837 72.0053 40.9837 72.0053C40.9837 72.0053 31.7885 68.0576 29.9009 67.4186Z" fill="#6EBEB5"/>
<g id="Group_17">
<path id="Vector_18" d="M33.6291 47.2231C33.3971 47.654 32.9133 48.2158 32.3648 47.9438C31.8212 47.6802 31.7812 46.8113 31.7614 46.3093C31.7424 45.7766 31.8556 44.6873 32.2157 43.8781C32.4602 43.2124 32.8777 42.7237 33.5422 42.8583C35.0183 43.1631 34.0523 46.4273 33.6291 47.2231Z" fill="#1B4B4C"/>
<path id="Vector_19" d="M38.7327 44.3779C39.4114 44.7348 39.1446 46.6187 38.7558 47.5597C38.2574 48.7649 37.3234 50.1941 36.2705 49.9116C35.7398 49.7673 35.4225 48.4586 36.1929 46.5941C36.9071 44.8658 38.1734 44.0857 38.7327 44.3779Z" fill="#1B4B4C"/>
<path id="Vector_20" d="M35.6884 52.4061C35.7519 52.8249 35.8044 53.609 35.4152 53.9162C35.0482 54.206 34.6771 53.862 34.469 53.5657C34.241 53.24 33.9217 52.6389 33.7601 52.0359C33.5232 51.3156 33.5054 50.5558 34.0486 50.1209C35.1234 49.2592 35.6064 51.8666 35.6884 52.4061Z" fill="#1B4B4C"/>
</g>
</g>
</g>
<g id="Group_18">
<g id="Group_19">
<g id="Group_20">
<g id="Group_21">
<path id="Vector_21" d="M20.8391 42.6654C23.1704 43.5037 27.6977 40.3094 29.6584 37.527C29.7918 37.3354 29.7231 35.156 29.7651 32.5042C29.7971 30.8947 29.8702 29.1038 30.0549 27.4741L19.5526 28.7974C19.5526 28.7974 20.1698 32.3276 19.8299 35.1665C19.7988 35.4038 19.7502 35.6217 19.6835 35.8274C19.6767 35.8577 19.6637 35.8941 19.6561 35.9365C19.3052 37.183 18.5862 41.8538 20.8391 42.6654Z" fill="white"/>
</g>
<path id="Vector_22" d="M19.6537 35.935C19.6335 36.0025 19.6132 36.0765 19.5995 36.1642C25.887 35.8978 28.2781 33.1332 29.8262 30.4813C29.8735 29.4701 29.941 28.4455 30.0553 27.4746L19.5522 28.7959C19.5522 28.7959 20.1726 32.3285 19.8287 35.1666C19.8016 35.4027 19.7478 35.6181 19.6803 35.8275C19.6739 35.8542 19.667 35.8946 19.6537 35.935Z" fill="#1B4B4C"/>
</g>
<g id="Group_22">
<g id="Group_23">
<path id="Vector_23" d="M32.8927 14.4158C33.9941 18.0668 32.035 28.5966 29.4333 30.9376C25.6619 34.3311 19.5037 34.6375 16.6243 30.1078C13.8334 25.7172 16.6296 12.0392 19.534 9.91357C23.8123 6.78276 31.2659 9.02355 32.8927 14.4158Z" fill="white"/>
</g>
<g id="Group_24">
<g id="Group_25">
<path id="Vector_24" d="M23.9318 20.3167C23.9424 20.2908 23.9812 20.3603 23.9751 20.3894C23.8243 21.0952 23.7702 21.929 24.3696 22.281C24.3882 22.292 24.3797 22.3271 24.3562 22.3198C23.5927 22.0672 23.6756 20.961 23.9318 20.3167Z" fill="#1B4B4C"/>
<path id="Vector_25" d="M24.7002 19.6902C25.8578 19.8103 25.5324 22.1165 24.4601 22.005C23.4048 21.8954 23.7297 19.5896 24.7002 19.6902Z" fill="#1B4B4C"/>
</g>
<g id="Group_26">
<path id="Vector_26" d="M19.5796 19.6617C19.578 19.6335 19.519 19.6876 19.5157 19.7171C19.4377 20.4345 19.2275 21.2433 18.5481 21.3892C18.5271 21.3937 18.5239 21.4301 18.5481 21.4301C19.3524 21.4305 19.6208 20.3537 19.5796 19.6617Z" fill="#1B4B4C"/>
<path id="Vector_27" d="M19.0469 18.826C17.9104 18.577 17.4957 20.8684 18.5486 21.0991C19.5849 21.3263 19.9996 19.0346 19.0469 18.826Z" fill="#1B4B4C"/>
</g>
<path id="Vector_28" d="M25.7588 18.7641C25.4557 18.6409 25.197 18.4764 24.91 18.3236C24.5863 18.151 24.3106 18.0467 24.1299 17.7092C24.0333 17.5282 24.1247 17.2404 24.2916 17.13C24.6808 16.8726 25.1299 16.9853 25.528 17.1773C25.9601 17.3855 26.2398 17.6567 26.4431 18.0904C26.6403 18.5103 26.1585 18.9266 25.7588 18.7641Z" fill="#1B4B4C"/>
<path id="Vector_29" d="M18.319 17.5387C18.646 17.5318 18.9463 17.4708 19.2689 17.43C19.633 17.3843 19.9277 17.3855 20.2167 17.1345C20.3719 16.9999 20.3888 16.6988 20.2724 16.5359C20.0008 16.1564 19.5413 16.1018 19.1007 16.1386C18.6226 16.179 18.2645 16.3322 17.9197 16.6649C17.5858 16.987 17.8878 17.548 18.319 17.5387Z" fill="#1B4B4C"/>
<path id="Vector_30" d="M23.5306 26.696C23.3895 26.892 23.2602 27.1511 23.0063 27.2182C22.7626 27.2824 22.453 27.2222 22.2113 27.1741C22.1875 27.1693 22.1689 27.1972 22.1871 27.2162C22.4195 27.4567 22.8378 27.5589 23.1567 27.4429C23.4687 27.3301 23.5787 27.0242 23.6049 26.7162C23.6082 26.6729 23.5512 26.6673 23.5306 26.696Z" fill="#1B4B4C"/>
<g id="Group_27">
<g id="Group_28">
<path id="Vector_31" d="M22.8115 24.6563C22.3245 25.2202 21.6887 25.476 21.0355 25.5096C20.7437 25.5265 20.4438 25.4942 20.1548 25.4263C20.0974 25.417 20.0408 25.4025 19.9903 25.3835C19.939 25.3697 19.8929 25.3572 19.8371 25.3374C19.7555 25.3135 19.7191 25.238 19.7163 25.1571L19.7171 25.1519C19.7211 25.126 19.7247 25.105 19.734 25.0799C19.734 25.0799 19.734 25.0799 19.7349 25.0747L19.745 25.012C19.8076 24.4599 19.979 23.6309 19.979 23.6309C19.7636 23.7033 18.6743 24.0197 18.7309 23.7344C19.2082 21.376 19.7393 18.7524 20.7126 16.506C20.7409 16.4304 20.8581 16.4651 20.8403 16.5427C20.4713 18.828 19.7029 21.0328 19.2955 23.3221C19.6399 23.2441 20.2057 23.0893 20.4927 23.1354C20.5679 23.1689 20.133 24.7315 20.1249 24.9817C20.1249 24.9817 20.1233 24.9922 20.1257 25.0088C21.0331 25.2569 21.7691 25.0763 22.7537 24.582C22.8127 24.5496 22.8624 24.6058 22.8115 24.6563Z" fill="#1B4B4C"/>
</g>
</g>
<g id="Group_29">
<path id="Vector_32" d="M20.5339 25.463C20.5339 25.463 20.9777 26.1384 21.622 26.4096C21.8593 26.5103 22.1188 26.5596 22.396 26.5018C22.9663 26.3858 23.0096 25.8709 22.9312 25.4238C22.8681 25.056 22.7177 24.7339 22.7177 24.7339C22.7177 24.7339 21.854 25.4558 20.5339 25.463Z" fill="#1B4B4C"/>
<path id="Vector_33" d="M21.622 26.4091C21.8593 26.5098 22.1188 26.5591 22.396 26.5013C22.9663 26.3853 23.0096 25.8704 22.9312 25.4233C22.3257 25.4512 21.7065 25.8263 21.622 26.4091Z" fill="#FC8E44"/>
</g>
</g>
<g id="Group_30">
<path id="Vector_34" d="M31.2153 23.9136C30.6462 23.3651 30.0444 19.8637 30.0444 19.8637C30.0444 19.8637 23.5682 17.0389 23.0011 11.065C23.0011 11.065 19.724 14.4602 16.9391 15.1323C16.9391 15.1323 17.2471 8.99438 22.9215 8.36102C22.9215 8.36102 28.5344 6.41972 33.0467 11.841C37.5594 17.262 32.9024 24.1024 32.9024 24.1024L31.2153 23.9136Z" fill="#1B4B4C"/>
<path id="Vector_35" d="M23.2089 9.94624C22.9053 10.8928 23.0585 11.9865 23.2929 12.938C23.531 13.9036 23.9421 14.8397 24.4453 15.6958C24.959 16.5704 25.5657 17.4208 26.3401 18.0837C27.2249 18.8411 28.3085 19.337 29.3699 19.7938C29.4034 19.8083 29.3787 19.8669 29.3448 19.8532C28.2212 19.4094 27.0935 18.9486 26.121 18.2167C25.273 17.5788 24.596 16.7224 24.012 15.8437C23.4158 14.9464 22.9607 13.9763 22.7792 12.9089C22.6018 11.8649 22.7998 10.9143 23.0949 9.91471C23.1159 9.84195 23.2319 9.87389 23.2089 9.94624Z" fill="#1B4B4C"/>
</g>
<g id="Group_31">
<path id="Vector_36" d="M21.5213 7.45417C22.609 6.68016 25.2208 5.1277 27.5821 4.93207C29.989 4.73281 33.1574 5.72103 34.2628 6.027C35.1718 6.2784 38.1915 6.43401 40.5531 7.5823C42.1092 8.33893 42.8946 10.5086 42.7402 11.61C42.5082 13.2651 39.0924 12.4766 38.9691 13.1188C38.8871 13.5452 39.573 15.6138 38.5949 16.6469C37.6184 17.6784 37.6531 17.524 37.0933 18.0931C35.7341 19.475 33.5701 11.8238 30.5633 9.88736C27.557 7.95132 21.5213 7.45417 21.5213 7.45417Z" fill="#FC8E44"/>
<path id="Vector_37" opacity="0.1" d="M21.7675 7.56069C21.7675 7.56069 27.5578 7.95153 30.5625 9.8896C33.5701 11.8224 35.2672 19.2008 36.6289 17.8197C37.2275 17.2102 37.4215 16.4507 37.466 15.2325C36.6835 13.1372 35.1064 9.96114 32.8163 8.01135C30.6713 6.18525 27.5332 5.69053 24.3478 5.98841C23.3644 6.46575 22.514 7.02838 21.7675 7.56069Z" fill="black"/>
<g id="Group_32">
<path id="Vector_38" d="M36.9753 21.4961C35.2305 19.212 33.45 15.496 30.7121 12.9064C27.9741 10.3168 21.4138 9.83941 20.5586 10.0702C18.4827 10.63 18.2313 11.731 17.8598 11.6126C17.4876 11.4941 19.091 8.66809 19.6083 8.19075C20.1261 7.71341 21.4437 7.02468 22.3616 6.85613C23.2799 6.68759 29.0287 6.07122 31.577 8.04566C34.1258 10.0201 38.4271 16.1463 38.2562 17.9805C38.2149 18.4207 37.7206 18.8018 37.6677 19.4246C37.5982 20.2423 37.6224 21.1667 37.5028 21.7532C37.4062 22.2261 37.082 21.6359 36.9753 21.4961Z" fill="#FC8E44"/>
<g id="Group_33">
<path id="Vector_39" d="M29.9436 11.6476C30.366 11.2471 30.7499 10.8275 31.1 10.3611C31.4451 9.90112 31.781 9.39993 32.0078 8.87005C32.0243 8.83125 32.085 8.84782 32.0716 8.88986C31.8857 9.47067 31.6594 10.0139 31.3013 10.5118C30.9573 10.9904 30.5074 11.4213 30.0103 11.739C29.9545 11.7745 29.8975 11.6913 29.9436 11.6476Z" fill="#1B4B4C"/>
<path id="Vector_40" d="M36.7214 20.3303C36.7464 20.1763 36.8139 20.0308 36.8527 19.8797C36.8976 19.7075 36.9275 19.5312 36.9348 19.353C36.9493 19.0119 36.8709 18.6845 36.959 18.3478C37.0285 18.081 37.1575 17.8377 37.2844 17.5944C37.4291 17.3175 37.5689 17.0298 37.5059 16.7113C37.4978 16.6688 37.5621 16.6539 37.5714 16.6959C37.6991 17.2953 37.3854 17.805 37.2282 18.3615C37.1276 18.718 37.2116 19.081 37.1716 19.4435C37.1377 19.7507 37.0548 20.1533 36.8224 20.3768C36.7885 20.4099 36.7125 20.3845 36.7214 20.3303Z" fill="#1B4B4C"/>
<path id="Vector_41" d="M35.5949 18.3391C35.7352 18.0747 35.8944 17.8322 36.0092 17.5529C36.1195 17.2853 36.206 17.0056 36.2792 16.726C36.3515 16.4495 36.4008 16.1682 36.4679 15.8905C36.5468 15.5623 36.6652 15.2398 36.7278 14.9087C36.7359 14.8663 36.7998 14.8865 36.7917 14.9286C36.7266 15.2721 36.721 15.6278 36.6672 15.9738C36.6207 16.2721 36.5443 16.5687 36.4595 16.8581C36.3774 17.137 36.2747 17.407 36.141 17.6653C36.014 17.9102 35.8415 18.1883 35.6224 18.3617C35.607 18.3754 35.5848 18.358 35.5949 18.3391Z" fill="#1B4B4C"/>
<path id="Vector_42" d="M34.4741 16.5589C34.8088 16.1268 35.0998 15.6325 35.2954 15.1216C35.489 14.6172 35.6535 14.0982 35.8124 13.5821C35.8229 13.5469 35.8831 13.5546 35.8778 13.5934C35.799 14.1524 35.7238 14.7065 35.5104 15.2344C35.4094 15.4842 35.2942 15.7433 35.137 15.9632C34.9656 16.2024 34.7502 16.4118 34.5279 16.6038C34.4996 16.6276 34.4486 16.5921 34.4741 16.5589Z" fill="#1B4B4C"/>
<path id="Vector_43" d="M33.3068 14.8741C33.502 14.6951 33.6063 14.4704 33.7199 14.2363C33.8444 13.9797 33.9636 13.719 34.0739 13.4559C34.1798 13.2028 34.2926 12.9531 34.3981 12.7C34.5044 12.4454 34.6083 12.1811 34.6006 11.901C34.5994 11.8638 34.6604 11.8573 34.6669 11.8945C34.7117 12.173 34.6673 12.4426 34.601 12.7134C34.5282 13.01 34.4381 13.299 34.3156 13.5791C34.1952 13.854 34.0618 14.1228 33.9074 14.3802C33.7728 14.6045 33.6075 14.8406 33.3618 14.9493C33.3149 14.9699 33.2652 14.9121 33.3068 14.8741Z" fill="#1B4B4C"/>
<path id="Vector_44" d="M32.2539 12.6491C32.3998 12.4316 32.5429 12.2138 32.6714 11.985C32.7987 11.7574 32.9151 11.523 33.0279 11.2878C33.1459 11.042 33.2708 10.7951 33.3727 10.5425C33.3888 10.5024 33.4458 10.5202 33.4365 10.5623C33.3791 10.8327 33.3209 11.0962 33.2227 11.3561C33.1265 11.6103 33.0101 11.8536 32.8788 12.0921C32.7502 12.3261 32.612 12.5585 32.4544 12.774C32.3024 12.9817 32.1302 13.2226 31.9067 13.3564C31.8731 13.3762 31.8238 13.3394 31.8396 13.3014C31.9354 13.0666 32.1132 12.8588 32.2539 12.6491Z" fill="#1B4B4C"/>
<path id="Vector_45" d="M28.1959 10.8416C28.3398 10.5582 28.48 10.2818 28.6506 10.013C28.8236 9.74058 29.0164 9.47826 29.2181 9.22685C29.6142 8.73375 30.0398 8.27055 30.5345 7.87486C30.562 7.85303 30.6109 7.88496 30.5858 7.9169C29.8187 8.91159 29.0099 9.87476 28.2525 10.8771C28.2266 10.9115 28.1761 10.88 28.1959 10.8416Z" fill="#1B4B4C"/>
<path id="Vector_46" d="M26.6495 9.40152C26.7999 9.12263 26.9777 8.86314 27.1867 8.62589C27.6244 8.12874 28.1478 7.72052 28.6817 7.33169C28.7157 7.30703 28.7589 7.34866 28.7278 7.38019C28.2873 7.82722 27.8382 8.26737 27.4235 8.73906C27.219 8.97146 27.0165 9.21034 26.8387 9.46417C26.66 9.71961 26.5416 10.0058 26.3751 10.2669C26.3621 10.2871 26.3266 10.2782 26.3286 10.2523C26.3553 9.95647 26.5105 9.65939 26.6495 9.40152Z" fill="#1B4B4C"/>
<path id="Vector_47" d="M24.8444 8.97026C24.979 8.69784 25.1439 8.44563 25.3306 8.20635C25.6851 7.75245 26.1123 7.37172 26.5961 7.05928C26.6281 7.03827 26.6624 7.08758 26.6349 7.11304C26.2154 7.50186 25.827 7.92909 25.4802 8.38339C25.306 8.61176 25.1439 8.84901 24.979 9.08384C24.8149 9.31746 24.692 9.59513 24.5053 9.81056C24.4899 9.82794 24.4645 9.80773 24.4697 9.78833C24.5441 9.50661 24.7155 9.23016 24.8444 8.97026Z" fill="#1B4B4C"/>
<path id="Vector_48" d="M23.4512 8.23439C23.6234 8.02219 23.8061 7.82011 23.9904 7.61882C24.1727 7.41996 24.3594 7.22352 24.5959 7.08974C24.6314 7.06993 24.6573 7.11641 24.6346 7.14349C24.2976 7.54889 23.9686 7.96278 23.6404 8.37585C23.3308 8.76468 23.1642 9.21737 22.9435 9.65671C22.9338 9.67612 22.9015 9.6652 22.9035 9.64418C22.9532 9.1244 23.1206 8.6418 23.4512 8.23439Z" fill="#1B4B4C"/>
<path id="Vector_49" d="M21.9031 8.22575C22.2018 7.77266 22.6093 7.43678 23.0494 7.1296C23.0801 7.10817 23.1181 7.15991 23.0886 7.18335C22.6865 7.497 22.3655 7.91736 22.0786 8.33448C21.7855 8.76049 21.5713 9.22651 21.3777 9.70344C21.3684 9.72608 21.3284 9.72366 21.332 9.69537C21.3935 9.16871 21.6129 8.6655 21.9031 8.22575Z" fill="#1B4B4C"/>
<path id="Vector_50" d="M20.147 9.51458C20.1732 9.401 20.2124 9.28824 20.2533 9.17911C20.3365 8.95802 20.4541 8.74865 20.5815 8.5502C20.8426 8.14278 21.1853 7.79963 21.5212 7.45405C21.5511 7.42333 21.598 7.47264 21.5673 7.50255C21.2338 7.83236 20.9501 8.20867 20.7039 8.608C20.5827 8.80443 20.4812 9.00935 20.3903 9.22115C20.3458 9.32462 20.3082 9.43011 20.2731 9.53722C20.2399 9.63787 20.2197 9.75911 20.168 9.85086C20.1542 9.87511 20.1118 9.86905 20.1069 9.84076C20.0908 9.73931 20.1239 9.61522 20.147 9.51458Z" fill="#1B4B4C"/>
<path id="Vector_51" d="M18.9813 9.86871C19.0621 9.69006 19.1499 9.51829 19.2505 9.34974C19.3507 9.18201 19.4583 9.02357 19.5787 8.86958C19.7016 8.71275 19.8313 8.56078 19.9469 8.3987C19.9744 8.35949 20.0294 8.40315 19.9982 8.44073C19.8705 8.59473 19.7662 8.76852 19.6672 8.94192C19.5734 9.10602 19.4776 9.26891 19.3831 9.43261C19.2889 9.5963 19.1943 9.75959 19.1014 9.92369C19.0076 10.0894 18.932 10.2749 18.8209 10.4289C18.8027 10.4544 18.7667 10.4366 18.7723 10.4067C18.8087 10.2216 18.9041 10.0397 18.9813 9.86871Z" fill="#1B4B4C"/>
</g>
</g>
</g>
<g id="Group_34">
<path id="Vector_52" d="M30.6139 22.9959C30.6139 22.9959 33.0746 19.6448 34.6004 20.5303C36.1266 21.4155 34.2205 26.3114 32.3903 26.9447C30.5602 27.5781 29.941 25.8955 29.941 25.8955L30.6139 22.9959Z" fill="white"/>
<path id="Vector_53" d="M34.0192 21.92C34.0483 21.918 34.0532 21.9588 34.0277 21.9689C32.7436 22.4547 32.0464 23.6192 31.5484 24.8313C31.9381 24.3694 32.4591 24.1232 33.0795 24.5884C33.1118 24.6131 33.0791 24.664 33.0431 24.6555C32.5245 24.5318 32.1466 24.6135 31.7849 25.0225C31.5286 25.3123 31.3496 25.6821 31.1633 26.0192C31.101 26.1316 30.8969 26.0661 30.9434 25.936C30.9466 25.9267 30.9507 25.9166 30.9543 25.9069C30.9599 24.2837 32.274 22.0425 34.0192 21.92Z" fill="#1B4B4C"/>
</g>
</g>
</g>
</g>
</g>
</g>
</g>
</g>
</g>
</g>
</g>
</svg>
