<svg width="51" height="51" viewBox="0 0 51 51" fill="none" xmlns="http://www.w3.org/2000/svg">
<g id="Group">
<path id="Vector" d="M25.887 50.3003C39.6941 50.3003 50.887 39.1074 50.887 25.3003C50.887 11.4932 39.6941 0.300293 25.887 0.300293C12.0798 0.300293 0.886963 11.4932 0.886963 25.3003C0.886963 39.1074 12.0798 50.3003 25.887 50.3003Z" fill="#D4CAFF"/>
<g id="Group_2">
<g id="Clip path group">
<mask id="mask0_153_10361" style="mask-type:luminance" maskUnits="userSpaceOnUse" x="0" y="0" width="51" height="51">
<g id="SVGID_00000048476328099929226300000008623570903039878541_">
<path id="Vector_2" d="M25.887 50.3003C39.6941 50.3003 50.887 39.1074 50.887 25.3003C50.887 11.4932 39.6941 0.300293 25.887 0.300293C12.0798 0.300293 0.886963 11.4932 0.886963 25.3003C0.886963 39.1074 12.0798 50.3003 25.887 50.3003Z" fill="white"/>
</g>
</mask>
<g mask="url(#mask0_153_10361)">
<g id="Group_3">
<g id="Group_4">
<g id="Group_5">
<g id="Group_6">
<g id="Group_7">
<path id="Vector_3" d="M49.785 84.405H6.51792C6.33644 82.7519 12.9639 47.5923 20.7484 36.2889C21.6316 35.0064 29.1979 34.0727 31.9759 37.263C46.689 54.1595 50.1407 83.9992 49.785 84.405Z" fill="#FC8E44"/>
</g>
</g>
<g id="Group_8">
<path id="Vector_4" d="M24.3126 46.5085L22.4368 43.2852L20.1027 45.899L20.7138 48.4632L23.0552 48.7344L24.3126 46.5085Z" fill="#1B4B4C"/>
<path id="Vector_5" d="M23.0553 48.7346L24.5027 75.0005L20.4778 81.1178L17.0067 74.0034L20.7139 48.4634L23.0553 48.7346Z" fill="#1B4B4C"/>
</g>
<g id="Group_9">
<path id="Vector_6" d="M19.7229 39.2069C18.495 42.3882 13.8619 53.5429 11.3434 61.5481C9.65351 66.9202 9.01005 71.4288 8.64022 72.6139C8.64022 72.6139 21.4161 68.5106 24.2927 68.5033C28.7229 68.4924 35.8289 77.7446 34.086 78.9038C31.3457 80.7263 18.2832 86.9265 7.85166 88.873C2.18096 89.9312 -8.50243 82.7238 -7.65809 76.994C-6.47343 68.9524 8.0582 47.7554 13.5874 41.7443C16.458 38.6236 21.2192 35.3295 19.7229 39.2069Z" fill="white"/>
<g id="Group_10">
<path id="Vector_7" d="M-8.4365 78.6936C-8.16893 84.4863 -0.92272 89.3624 3.27918 89.6203C10.527 90.06 32.2697 83.7281 32.2697 83.7281L23.8186 67.4455C23.8186 67.4455 9.02344 72.4675 8.64795 72.609L8.64836 72.6025C8.77931 72.1709 12.4251 58.4706 14.0539 53.9308C14.1408 53.6802 14.2415 53.424 14.3364 53.154C14.8053 51.8966 15.4488 50.2362 16.1593 48.442L16.1666 48.4295C16.5603 47.4364 16.9766 46.3989 17.3856 45.3738L17.386 45.3674C19.1729 40.9286 20.9145 36.7041 20.9145 36.7041C18.424 37.1127 15.9649 38.4219 11.9267 42.6602C7.89577 46.8916 -8.87827 69.1371 -8.4365 78.6936Z" fill="#FC8E44"/>
<g id="Group_11">
<path id="Vector_8" d="M4.12256 75.01L8.64053 72.6144L8.6474 72.6084L8.6478 72.6019C8.77876 72.1702 12.4245 58.47 14.0534 53.9302C14.1403 53.6796 14.2409 53.4234 14.3359 53.1534C14.8047 51.896 15.4482 50.2356 16.1588 48.4414L4.12256 75.01Z" fill="#1B4B4C"/>
</g>
</g>
</g>
<g id="Group_12">
<g id="Group_13">
<path id="Vector_9" d="M3.672 73.4901C4.80573 73.5054 11.6514 71.6769 12.6485 72.6166C18.725 78.3447 20.6457 77.1908 21.9391 77.9369C31.9511 83.6973 45.3215 90.4642 50.0942 90.507C57.3319 90.566 60.2149 84.492 59.01 78.753C56.6318 67.4079 41.3314 45.2877 34.409 39.4105C30.7382 36.2987 31.0284 40.9925 32.5469 46.0941C33.4373 49.0858 34.9946 53.5339 36.5835 57.8987C37.9909 61.7869 41.7191 71.7238 41.7841 71.957L41.7837 71.9635C41.7894 71.9768 41.7954 71.9837 41.7954 71.9905C41.8003 72.0172 41.774 72.0221 41.7158 72.0055C41.3977 71.9473 32.8359 67.9119 24.2256 65.6954C21.1914 64.9141 14.8727 63.8014 12.6073 64.8126C11.2601 65.4141 11.2371 66.218 11.2371 66.218C11.2371 66.218 10.1571 66.1198 9.01814 67.0575C8.26272 67.6795 8.02789 68.5598 8.02789 68.5598C8.02789 68.5598 6.84605 68.7251 6.23129 69.4098C5.4981 70.2267 5.43343 71.0912 5.43343 71.0912C3.83973 71.5173 3.672 73.4901 3.672 73.4901Z" fill="white"/>
</g>
<g id="Group_14">
<path id="Vector_10" d="M30.6328 67.4186C29.0484 66.8822 28.3317 66.879 28.3317 66.879L19.3241 82.0909C19.3241 82.0909 44.1353 91.0229 49.2301 91.5455C54.3244 92.0682 60.12 88.0562 60.2178 81.66C60.3552 72.671 45.6967 51.0839 38.3232 42.7363C34.9438 38.9103 31.0034 36.1323 29.999 36.7588C28.8119 37.4997 30.9674 42.3099 32.1036 45.8982C34.2009 52.5228 41.7155 72.0053 41.7155 72.0053C41.7155 72.0053 32.5203 68.0576 30.6328 67.4186Z" fill="#FC8E44"/>
</g>
</g>
<g id="Group_15">
<g id="Group_16">
<path id="Vector_11" d="M33.6516 24.644C33.6516 24.644 33.5291 27.3521 33.7712 28.291C34.0133 29.2299 36.1248 30.2161 36.1248 30.2161C36.1248 30.2161 33.7166 31.0665 33.0323 30.9024C32.3481 30.7383 31.2467 28.985 31.2467 28.985C31.2467 28.985 32.2608 31.7916 33.2377 31.9396C33.8447 32.0313 31.7482 32.0519 31.7482 32.0519C31.7482 32.0519 30.6291 32.0083 29.9169 31.2011C29.2051 30.3944 33.6516 24.644 33.6516 24.644Z" fill="#1B4B4C"/>
<g id="Group_17">
<g id="Group_18">
<path id="Vector_12" d="M21.571 42.6654C23.9023 43.5037 28.4296 40.3094 30.3903 37.527C30.5237 37.3354 30.455 35.156 30.497 32.5042C30.5289 30.8947 30.6021 29.1038 30.7868 27.4741L20.2845 28.7974C20.2845 28.7974 20.9017 32.3276 20.5618 35.1665C20.5306 35.4038 20.4821 35.6217 20.4154 35.8274C20.4086 35.8577 20.3956 35.8941 20.388 35.9365C20.0371 37.183 19.3181 41.8538 21.571 42.6654Z" fill="white"/>
</g>
<path id="Vector_13" d="M20.3856 35.935C20.3654 36.0025 20.3452 36.0765 20.3318 36.1642C26.6193 35.8978 29.0105 33.1332 30.5585 30.4813C30.6058 29.4701 30.6733 28.4455 30.7877 27.4746L20.2845 28.7959C20.2845 28.7959 20.905 32.3285 20.561 35.1666C20.5339 35.4027 20.4802 35.6181 20.4127 35.8275C20.4058 35.8542 20.3989 35.8946 20.3856 35.935Z" fill="#1B4B4C"/>
</g>
<g id="Group_19">
<g id="Group_20">
<path id="Vector_14" d="M33.6245 14.4158C34.7259 18.0668 32.7668 28.5966 30.165 30.9376C26.3936 34.3311 20.2355 34.6375 17.3565 30.1078C14.5656 25.7172 17.3617 12.0392 20.2662 9.91357C24.5441 6.78276 31.9976 9.02355 33.6245 14.4158Z" fill="white"/>
</g>
<g id="Group_21">
<g id="Group_22">
<path id="Vector_15" d="M24.664 20.3167C24.6745 20.2908 24.7137 20.3603 24.7073 20.3894C24.5565 21.0952 24.5024 21.929 25.1018 22.281C25.1204 22.292 25.1119 22.3271 25.0884 22.3198C24.3249 22.0672 24.4078 20.961 24.664 20.3167Z" fill="#1B4B4C"/>
<path id="Vector_16" d="M25.4323 19.6902C26.5899 19.8103 26.2645 22.1165 25.1922 22.005C24.1369 21.8954 24.4619 19.5896 25.4323 19.6902Z" fill="#1B4B4C"/>
</g>
<g id="Group_23">
<path id="Vector_17" d="M20.3115 19.6617C20.3099 19.6335 20.2509 19.6876 20.2477 19.7171C20.1697 20.4345 19.9595 21.2433 19.2801 21.3892C19.259 21.3937 19.2558 21.4301 19.2801 21.4301C20.0844 21.4305 20.3528 20.3537 20.3115 19.6617Z" fill="#1B4B4C"/>
<path id="Vector_18" d="M19.7788 18.826C18.6423 18.577 18.2276 20.8684 19.2805 21.0991C20.3168 21.3263 20.7315 19.0346 19.7788 18.826Z" fill="#1B4B4C"/>
</g>
<path id="Vector_19" d="M26.4907 18.7641C26.1876 18.6409 25.9289 18.4764 25.642 18.3236C25.3182 18.151 25.0425 18.0467 24.8623 17.7092C24.7657 17.5282 24.857 17.2404 25.024 17.13C25.4132 16.8726 25.8622 16.9853 26.2604 17.1773C26.6924 17.3855 26.9721 17.6567 27.1754 18.0904C27.3723 18.5103 26.8905 18.9266 26.4907 18.7641Z" fill="#1B4B4C"/>
<path id="Vector_20" d="M19.0509 17.5387C19.3778 17.5318 19.6782 17.4708 20.0007 17.43C20.3649 17.3843 20.6595 17.3855 20.9485 17.1345C21.1037 16.9999 21.1207 16.6988 21.0043 16.5359C20.7327 16.1564 20.2731 16.1018 19.8326 16.1386C19.3544 16.179 18.9963 16.3322 18.6515 16.6649C18.3177 16.987 18.6196 17.548 19.0509 17.5387Z" fill="#1B4B4C"/>
<path id="Vector_21" d="M24.2624 26.696C24.1214 26.892 23.992 27.1511 23.7382 27.2182C23.4945 27.2824 23.1849 27.2222 22.9432 27.1741C22.9193 27.1693 22.9008 27.1972 22.9189 27.2162C23.1513 27.4567 23.5697 27.5589 23.8886 27.4429C24.2006 27.3301 24.3105 27.0242 24.3368 26.7162C24.3401 26.6729 24.2831 26.6673 24.2624 26.696Z" fill="#1B4B4C"/>
<g id="Group_24">
<g id="Group_25">
<path id="Vector_22" d="M23.5435 24.6563C23.0565 25.2202 22.4207 25.476 21.7675 25.5096C21.4757 25.5265 21.1758 25.4942 20.8868 25.4263C20.8294 25.417 20.7728 25.4025 20.7223 25.3835C20.671 25.3697 20.6249 25.3572 20.5691 25.3374C20.4875 25.3135 20.4511 25.238 20.4483 25.1571L20.4491 25.1519C20.4531 25.126 20.4567 25.105 20.466 25.0799C20.466 25.0799 20.466 25.0799 20.4668 25.0747L20.4769 25.012C20.5396 24.4599 20.711 23.6309 20.711 23.6309C20.4955 23.7033 19.4059 24.0197 19.4628 23.7344C19.9402 21.376 20.4713 18.7524 21.4446 16.506C21.4729 16.4304 21.5901 16.4651 21.5723 16.5427C21.2033 18.828 20.4345 21.0328 20.0275 23.3221C20.3719 23.2441 20.9377 23.0893 21.2247 23.1354C21.2999 23.1689 20.865 24.7315 20.8569 24.9817C20.8569 24.9817 20.8553 24.9922 20.8577 25.0088C21.7651 25.2569 22.5011 25.0763 23.4857 24.582C23.5447 24.5496 23.5944 24.6058 23.5435 24.6563Z" fill="#1B4B4C"/>
</g>
</g>
<g id="Group_26">
<path id="Vector_23" d="M21.2659 25.463C21.2659 25.463 21.7097 26.1384 22.3539 26.4096C22.5916 26.5103 22.8507 26.5596 23.1279 26.5018C23.6982 26.3858 23.7415 25.8709 23.6631 25.4238C23.6 25.056 23.4497 24.7339 23.4497 24.7339C23.4497 24.7339 22.5859 25.4558 21.2659 25.463Z" fill="#1B4B4C"/>
<path id="Vector_24" d="M22.3539 26.4091C22.5915 26.5098 22.8506 26.5591 23.1279 26.5013C23.6982 26.3853 23.7414 25.8704 23.663 25.4233C23.0576 25.4512 22.4384 25.8263 22.3539 26.4091Z" fill="#FC8E44"/>
</g>
</g>
<path id="Vector_25" d="M32.5373 24.8973C30.5903 24.0133 30.579 17.0399 30.579 17.0399L29.6284 20.7285C29.6284 20.7285 28.2521 19.2314 27.7691 17.4409C27.4243 16.1625 27.839 14.5069 28.1563 13.7119C28.1563 13.7119 25.4826 15.2401 22.7819 15.538C21.7884 15.6475 15.5874 14.84 15.6525 14.4026C15.8461 13.0987 18.3993 8.92513 20.3507 7.98419C22.5968 6.90098 27.6612 5.78341 31.6266 8.02421C34.7991 9.81636 34.0845 12.3692 34.5485 14.2959C34.5485 14.2959 36.7008 16.6293 36.6697 17.6527C36.603 19.8619 33.2527 25.2222 32.5373 24.8973Z" fill="#1B4B4C"/>
<g id="Group_27">
<path id="Vector_26" d="M31.3458 22.9954C31.3458 22.9954 33.8065 19.6443 35.3327 20.5299C36.8584 21.415 34.9527 26.3109 33.1226 26.9443C31.2924 27.5776 30.6732 25.895 30.6732 25.895L31.3458 22.9954Z" fill="white"/>
<path id="Vector_27" d="M34.751 21.9195C34.7801 21.9175 34.7849 21.9583 34.7595 21.9684C33.4754 22.4542 32.7778 23.6187 32.2806 24.8308C32.6703 24.3689 33.1912 24.1227 33.8117 24.5879C33.844 24.6126 33.8113 24.6635 33.7753 24.655C33.2567 24.5313 32.8788 24.613 32.5167 25.022C32.2604 25.3118 32.0814 25.6817 31.895 26.0187C31.8328 26.1311 31.6287 26.0656 31.6752 25.9355C31.6784 25.9262 31.6824 25.9161 31.6861 25.9064C31.6917 24.2832 33.0057 22.042 34.751 21.9195Z" fill="#1B4B4C"/>
</g>
</g>
</g>
</g>
<g id="Group_28">
<g id="Group_29">
<path id="Vector_28" d="M20.3399 35.7644L22.7747 42.0175L30.5956 34.2212L32.7613 36.7724C32.7613 36.7724 25.0599 49.2087 25.0179 48.6429L22.5087 43.2486L18.7648 46.9433L19.1653 37.5723L20.3399 35.7644Z" fill="#FC8E44"/>
<path id="Vector_29" d="M18.7004 42.3001C18.8185 40.7553 18.894 39.196 19.0832 37.6581C19.0901 37.6035 19.1758 37.5801 19.1883 37.6447C19.4825 39.141 18.9995 45.047 18.9914 46.464C18.9967 46.4588 19.0028 46.4531 19.008 46.4479C19.164 46.2878 22.4763 43.1986 22.5083 43.2488C23.0555 44.1068 24.8974 48.0351 25.0223 48.3924C26.2405 46.4168 30.9048 39.2376 32.3412 37.3727C32.3825 37.3194 32.4657 37.3646 32.4334 37.4273C31.3538 39.5157 25.1799 49.1842 25.0869 49.1559C25.0227 49.2044 22.7338 44.3655 22.4638 43.4533C21.9016 44.1283 18.5545 47.6184 18.5456 47.3884C18.4866 45.8363 18.5824 43.8469 18.7004 42.3001Z" fill="#1B4B4C"/>
</g>
</g>
</g>
</g>
</g>
</g>
</g>
</g>
</g>
</svg>
