<svg width="51" height="50" viewBox="0 0 51 50" fill="none" xmlns="http://www.w3.org/2000/svg">
<g id="Group">
<path id="Vector" d="M25.021 49.9941C38.8281 49.9941 50.021 38.8013 50.021 24.9941C50.021 11.187 38.8281 -0.00585938 25.021 -0.00585938C11.2139 -0.00585938 0.0209961 11.187 0.0209961 24.9941C0.0209961 38.8013 11.2139 49.9941 25.021 49.9941Z" fill="#FC8E44"/>
<g id="Group_2">
<g id="Clip path group">
<mask id="mask0_153_9934" style="mask-type:luminance" maskUnits="userSpaceOnUse" x="0" y="-1" width="51" height="51">
<g id="SVGID_00000043433080378654917020000009449595635869315463_">
<path id="Vector_2" d="M25.021 49.9941C38.8281 49.9941 50.021 38.8013 50.021 24.9941C50.021 11.187 38.8281 -0.00585938 25.021 -0.00585938C11.2139 -0.00585938 0.0209961 11.187 0.0209961 24.9941C0.0209961 38.8013 11.2139 49.9941 25.021 49.9941Z" fill="white"/>
</g>
</mask>
<g mask="url(#mask0_153_9934)">
<g id="Group_3">
<g id="Group_4">
<g id="Group_5">
<path id="Vector_3" d="M39.3125 29.0257C39.6758 35.5771 39.9381 42.3217 39.2914 48.8582C38.789 53.9493 36.6501 58.1427 31.3573 59.3924C26.4481 60.5496 19.4557 60.4615 15.3027 57.2074C13.3691 55.6889 12.6953 53.5475 12.8247 51.1491C13.0021 47.8138 15.6471 29.5467 16.4364 23.8493C16.9118 20.3802 17.3762 16.8626 18.4646 13.5095C20.7487 6.47383 24.2291 6.53284 24.7117 6.39097C25.1292 6.1238 27.8009 4.93308 31.6018 6.14442C33.702 6.81375 35.1878 8.23647 36.1186 10.1652C38.8513 15.8125 38.9689 22.8914 39.3125 29.0257Z" fill="#1B4B4C"/>
<path id="Vector_4" d="M23.6265 7.36669C19.44 9.32334 18.442 13.8943 17.4283 17.9911C16.0169 23.6941 14.7029 29.423 13.6674 35.2073C13.1694 37.9885 12.7337 40.781 12.3821 43.5844C12.0454 46.2674 11.5212 49.1302 11.7023 51.8419C12.0009 56.3239 16.1018 58.3626 20.0753 59.0012C20.2689 59.0323 20.3251 58.7401 20.1327 58.7021C17.8701 58.2535 15.5602 57.625 13.876 55.946C11.716 53.7933 11.967 50.9834 12.2224 48.1852C12.6569 43.4227 13.3622 38.6885 14.2369 33.9879C15.1128 29.2816 16.1564 24.6072 17.2723 19.9526C18.3345 15.5223 19.1057 9.68872 23.652 7.43701C23.6944 7.41559 23.6705 7.34567 23.6265 7.36669Z" fill="#1B4B4C"/>
<path id="Vector_5" d="M38.0442 14.951C37.2487 11.5264 35.4699 8.18742 31.863 7.19313C31.8561 7.19111 31.8545 7.20162 31.861 7.20364C36.522 8.68861 37.6574 13.7825 38.2786 18.0374C38.9322 22.5149 39.4143 27.0159 39.7381 31.5295C40.0493 35.8708 40.2708 40.2473 40.1859 44.6008C40.0946 49.2994 39.2438 53.7002 36.4687 57.5731C36.4113 57.6531 36.52 57.7497 36.5867 57.6733C39.3198 54.5413 40.2243 50.2254 40.4438 46.1856C40.7328 40.8657 40.3876 35.4533 39.9713 30.1488C39.576 25.1086 39.1904 19.8857 38.0442 14.951Z" fill="#1B4B4C"/>
</g>
<g id="Group_6">
<g id="Group_7">
<g id="Group_8">
<path id="Vector_6" d="M17.497 38.5665C6.90132 50.488 -5.92991 75.0716 -3.05495 79.7703C0.147402 85.0041 15.4349 68.0279 14.909 67.2592C14.4624 66.606 19.4322 51.9006 23.0408 41.1469C26.6457 30.4032 20.1169 35.6188 17.497 38.5665Z" fill="white"/>
</g>
<g id="Group_9">
<path id="Vector_7" d="M17.497 38.5665C6.90132 50.488 -5.92991 75.0716 -3.05495 79.7703C0.147402 85.0041 15.4349 68.0279 14.909 67.2592C14.4624 66.606 19.4322 51.9006 23.0408 41.1469C26.6457 30.4032 20.1169 35.6188 17.497 38.5665Z" fill="#D4CAFF"/>
</g>
</g>
<g id="Group_10">
<path id="Vector_8" d="M7.27393 85.2063L9.93507 67.1744C9.93507 67.1744 5.66932 59.7269 8.14373 54.382C9.39347 51.6748 17.9589 38.4446 22.5731 35.0956C26.9019 31.9538 32.8309 34.8191 34.8478 37.5518C40.6462 45.4099 43.4714 59.5539 46.709 85.2059H7.27393V85.2063Z" fill="#D4CAFF"/>
<path id="Vector_9" d="M15.0363 43.41C14.1608 44.6112 13.3108 45.8306 12.475 47.0602C12.7029 46.5816 12.9325 46.1043 13.1572 45.6245C13.1734 45.5897 13.1229 45.561 13.1051 45.5954C12.7943 46.1964 12.5081 46.8059 12.2292 47.4199C11.1129 49.0738 10.028 50.7492 8.98199 52.4483C8.5382 53.169 8.13119 53.9034 7.83169 54.6972C7.54189 55.4656 7.36203 56.2744 7.26664 57.0892C7.17125 57.9056 7.16438 58.7257 7.22703 59.5446C7.2921 60.3881 7.39395 61.2236 7.58311 62.0489C7.79652 62.9798 8.08754 63.9062 8.46504 64.7844C8.65056 65.2157 8.84821 65.6445 9.06122 66.0629C9.25603 66.4448 9.65213 67.2253 9.64648 67.2552C9.56645 67.6869 9.48561 67.99 9.43104 68.353C9.37527 68.7228 9.31989 69.093 9.26412 69.4629C9.15256 70.2029 8.19181 77.4047 8.08349 78.1456C7.86806 79.616 7.68335 81.0876 7.49985 82.5625C7.39436 83.4084 7.33939 84.2621 7.22016 85.106C7.21531 85.14 7.26704 85.1541 7.2731 85.1194C7.39476 84.3837 7.57705 83.6586 7.71084 82.925C7.84462 82.191 7.98042 81.457 8.11785 80.7234C8.39592 79.2409 9.46661 71.2833 9.69861 69.7931C9.76288 69.3808 9.82714 68.969 9.89141 68.5567C9.95527 68.1473 10.0648 67.5968 10.0486 67.1813C10.0486 67.1813 8.72817 64.468 8.21526 62.5659C7.99983 61.7672 7.77955 60.937 7.69063 60.1133C7.60332 59.3037 7.59443 58.4881 7.66071 57.6765C7.727 56.8653 7.87978 56.0601 8.12835 55.2845C8.38501 54.4842 8.75323 53.7393 9.16469 53.0081C10.0268 51.4763 10.9431 49.9723 11.8723 48.4805C12.926 46.7886 13.9919 45.1035 15.0815 43.4346C15.1001 43.4067 15.0553 43.3837 15.0363 43.41Z" fill="#1B4B4C"/>
</g>
<g id="Group_11">
<g id="Group_12">
<path id="Vector_10" d="M37.6883 41.2874C49.1073 55.8191 53.4155 81.9229 47.0775 83.9576C41.286 85.8168 17.4662 79.8563 10.3715 77.4461C8.28755 76.738 14.7242 60.5355 16.9533 61.2897C19.6475 62.2015 34.3793 65.6921 34.665 65.6985C35.2769 65.7127 32.0035 49.6411 30.5985 42.3585C28.6415 32.2123 33.4003 35.8305 37.6883 41.2874Z" fill="white"/>
</g>
<g id="Group_13">
<path id="Vector_11" d="M34.4513 65.0405C34.6356 64.9301 31.2138 49.4184 30.0659 41.3242C28.9184 33.23 32.5334 34.0076 37.7357 40.9273C43.3078 48.3396 53.2293 68.4041 49.7921 83.2623C48.679 88.0737 14.2101 81.3336 14.2101 81.3336L18.855 61.5225C18.855 61.5225 34.1663 65.2111 34.4513 65.0405Z" fill="#D4CAFF"/>
<g id="Group_14">
<path id="Vector_12" d="M34.2807 65.1994C34.2937 65.165 32.0929 54.0071 31.8851 53.6364C31.6721 53.2525 31.211 52.3988 31.0222 52.0007C30.6415 51.198 30.3108 50.3775 29.96 49.5647C29.9305 49.4976 30.0324 49.4455 30.0615 49.513C30.4406 50.2991 30.8868 51.0533 31.3375 51.7978C31.5618 52.1636 31.7857 52.5326 32.0104 52.8952C32.0274 52.9194 30.9276 47.0915 30.7736 46.0681C30.7611 45.9929 30.844 45.9715 30.867 46.035C31.1976 47.0652 34.5317 63.9585 34.8478 65.2519C34.8478 65.2519 34.6292 65.2479 34.2807 65.1994Z" fill="#1B4B4C"/>
</g>
</g>
</g>
</g>
<path id="Vector_13" d="M21.9358 47.7694C21.7972 47.7694 21.6808 47.6602 21.6662 47.5216C21.6517 47.3688 21.7608 47.2375 21.914 47.2229C22.0595 47.2084 22.1977 47.3175 22.2127 47.4707C22.2272 47.6166 22.1108 47.7548 21.9649 47.7698C21.9504 47.7694 21.9431 47.7694 21.9358 47.7694ZM21.2289 47.6671C21.1856 47.6671 21.1489 47.6599 21.1052 47.6453C20.9743 47.5721 20.9161 47.4121 20.9815 47.2734C21.047 47.1425 21.2143 47.0843 21.3457 47.1498C21.4839 47.2156 21.5425 47.383 21.4694 47.5216C21.4257 47.6162 21.3312 47.6671 21.2289 47.6671ZM22.6427 47.6016C22.5332 47.6016 22.4241 47.5289 22.3877 47.4194C22.3364 47.2734 22.4095 47.1207 22.5477 47.0697C22.6937 47.0188 22.8468 47.0916 22.8974 47.2302C22.9487 47.3757 22.8755 47.5289 22.7373 47.5871C22.7009 47.5948 22.6718 47.6016 22.6427 47.6016ZM23.3056 47.303C23.2037 47.303 23.1088 47.252 23.0651 47.1574C22.9923 47.0261 23.0433 46.8588 23.1746 46.7856C23.3129 46.7201 23.4729 46.771 23.5461 46.9024C23.6188 47.0338 23.5683 47.2015 23.4293 47.2739C23.3933 47.2957 23.3492 47.303 23.3056 47.303ZM20.7338 47.1574C20.6392 47.1574 20.5442 47.1061 20.4933 47.0115C20.4201 46.8806 20.4715 46.7132 20.6024 46.6401C20.7338 46.5673 20.9015 46.6179 20.9743 46.7492C21.047 46.8875 20.9961 47.0479 20.8647 47.1207C20.8215 47.1429 20.7774 47.1574 20.7338 47.1574ZM23.9325 46.9315C23.8452 46.9315 23.7502 46.8879 23.6993 46.8078C23.6192 46.6841 23.6556 46.5091 23.7793 46.4291C23.9107 46.3491 24.078 46.3855 24.158 46.5091C24.2385 46.6328 24.2094 46.8078 24.078 46.8883C24.0343 46.917 23.9834 46.9315 23.9325 46.9315ZM24.5226 46.5164C24.4426 46.5164 24.3625 46.4796 24.3043 46.4069C24.2166 46.2832 24.2389 46.1155 24.3625 46.0209C24.4793 45.9332 24.654 45.9554 24.7413 46.0791C24.8358 46.1955 24.814 46.3705 24.6899 46.4582C24.639 46.4942 24.5808 46.5164 24.5226 46.5164ZM20.4856 46.4724C20.3619 46.4724 20.2528 46.3919 20.2164 46.261C20.1873 46.1151 20.2746 45.9695 20.4201 45.9328C20.5733 45.9037 20.7192 45.991 20.7552 46.1369C20.7843 46.2824 20.697 46.4356 20.5438 46.4647C20.5297 46.4724 20.5078 46.4724 20.4856 46.4724ZM25.0909 46.0645C25.0181 46.0645 24.9377 46.0278 24.8868 45.9623C24.7849 45.8455 24.8067 45.6781 24.9159 45.5763C25.0327 45.4813 25.2077 45.4958 25.3023 45.6127C25.4041 45.7295 25.3823 45.9041 25.2655 45.9987C25.215 46.0423 25.1564 46.0645 25.0909 46.0645ZM20.3696 45.7586C20.2314 45.7586 20.1146 45.649 20.1 45.5104C20.0855 45.3576 20.1946 45.2267 20.3478 45.2121C20.4937 45.1976 20.6319 45.3067 20.6465 45.4599C20.661 45.6058 20.5442 45.744 20.3987 45.759C20.391 45.7586 20.3765 45.7586 20.3696 45.7586ZM25.6446 45.5836C25.5646 45.5836 25.4918 45.5545 25.4409 45.4958C25.3386 45.3794 25.3463 45.2121 25.4554 45.1098C25.5723 45.0076 25.7396 45.0153 25.8414 45.1244C25.9437 45.2335 25.9364 45.4085 25.8269 45.5104C25.776 45.5617 25.7105 45.5836 25.6446 45.5836ZM26.1692 45.0808C26.0965 45.0808 26.031 45.0516 25.9724 45.0007C25.8701 44.8916 25.8701 44.7166 25.9724 44.6143C26.0815 44.5052 26.2565 44.5052 26.3584 44.6143C26.4679 44.7235 26.4679 44.8985 26.3584 45.0007C26.3079 45.0589 26.2347 45.0808 26.1692 45.0808ZM20.3328 45.0298C20.1873 45.0298 20.0636 44.913 20.0636 44.7602C20.056 44.6143 20.18 44.4906 20.3328 44.4834C20.4856 44.4834 20.6024 44.607 20.6101 44.7525C20.6101 44.9057 20.486 45.0298 20.3405 45.0298H20.3328ZM26.6789 44.5634C26.6066 44.5634 26.5407 44.5343 26.4898 44.4906C26.3806 44.3815 26.3729 44.2065 26.4752 44.1046C26.5843 43.9878 26.7521 43.9878 26.8612 44.0901C26.9707 44.1919 26.978 44.367 26.8758 44.4761C26.818 44.5343 26.7521 44.5634 26.6789 44.5634ZM20.3474 44.3084C20.3401 44.3084 20.3401 44.3084 20.3328 44.3084C20.1873 44.3011 20.0705 44.1701 20.0782 44.0169C20.0855 43.871 20.2091 43.7473 20.3619 43.7619C20.5151 43.7619 20.6315 43.8933 20.6246 44.046C20.617 44.1915 20.4933 44.3084 20.3474 44.3084ZM27.1676 44.0242C27.1017 44.0242 27.0362 44.0024 26.9853 43.9515C26.8685 43.8565 26.8612 43.6819 26.9631 43.5723C27.0576 43.4555 27.2326 43.441 27.3422 43.5432C27.459 43.6451 27.4735 43.8201 27.3713 43.9292C27.3208 43.9947 27.2403 44.0242 27.1676 44.0242ZM20.3987 43.5796C20.3914 43.5796 20.3842 43.5796 20.3765 43.5796C20.2237 43.5651 20.1142 43.4341 20.1287 43.2805C20.1433 43.1277 20.2746 43.0182 20.4278 43.0328C20.5733 43.0473 20.6901 43.1787 20.6756 43.3314C20.661 43.4705 20.5369 43.5796 20.3987 43.5796ZM27.6336 43.4705C27.5758 43.4705 27.5172 43.4482 27.4659 43.405C27.3495 43.31 27.3276 43.1423 27.4295 43.0263C27.5241 42.9095 27.6991 42.888 27.8082 42.9895C27.9319 43.0841 27.9464 43.2522 27.8446 43.3682C27.7941 43.4341 27.714 43.4705 27.6336 43.4705ZM28.0932 42.9018C28.035 42.9018 27.9763 42.88 27.9254 42.8436C27.8086 42.7563 27.7868 42.5809 27.8741 42.4649C27.9687 42.3412 28.1437 42.319 28.2605 42.4135C28.3769 42.5012 28.3987 42.6763 28.3114 42.7923H28.3041C28.2532 42.8658 28.1732 42.9018 28.0932 42.9018ZM20.4856 42.8585C20.4715 42.8585 20.4569 42.8585 20.4492 42.8585C20.2964 42.8363 20.1942 42.6981 20.2164 42.5453C20.2382 42.3994 20.3696 42.2975 20.5224 42.3121C20.6679 42.3339 20.7774 42.4721 20.7556 42.6253C20.7406 42.7563 20.617 42.8585 20.4856 42.8585ZM28.5228 42.3194C28.4719 42.3194 28.4137 42.3048 28.37 42.2684C28.2463 42.1807 28.2168 42.0057 28.3045 41.8893C28.3918 41.7656 28.5669 41.7365 28.6829 41.8234C28.8069 41.9107 28.836 42.0861 28.7487 42.2021C28.6974 42.283 28.6101 42.3194 28.5228 42.3194ZM20.5951 42.1371C20.5806 42.1371 20.566 42.1371 20.5515 42.1371C20.3983 42.108 20.3033 41.9693 20.3255 41.8166C20.3474 41.6706 20.4933 41.5688 20.6388 41.5983C20.792 41.6201 20.8934 41.766 20.8643 41.9115C20.8429 42.0425 20.7261 42.1371 20.5951 42.1371ZM28.9379 41.722C28.887 41.722 28.836 41.7074 28.7924 41.6783C28.661 41.5906 28.6319 41.4233 28.712 41.2996C28.7993 41.1682 28.967 41.1391 29.0907 41.2196C29.222 41.3069 29.2511 41.4742 29.1711 41.5983C29.1129 41.6779 29.0329 41.722 28.9379 41.722ZM20.7338 41.4229C20.7115 41.4229 20.697 41.4229 20.6756 41.4156C20.5297 41.3865 20.4351 41.2406 20.4642 41.0947C20.4933 40.9492 20.6392 40.8546 20.7847 40.8837C20.9306 40.9124 21.0252 41.0583 20.9961 41.2042C20.9743 41.3356 20.8575 41.4229 20.7338 41.4229ZM29.3316 41.1096C29.2879 41.1096 29.237 41.0951 29.1933 41.0664C29.062 40.9932 29.026 40.8259 29.1056 40.6945C29.0988 40.6945 29.0988 40.6945 29.0988 40.6945C29.1788 40.5632 29.3465 40.5268 29.4775 40.6068C29.6084 40.6796 29.6452 40.8473 29.5648 40.9787C29.5135 41.066 29.4262 41.1096 29.3316 41.1096ZM20.8865 40.716C20.8647 40.716 20.8429 40.7087 20.8211 40.7087C20.6752 40.6723 20.5879 40.5264 20.6242 40.3805C20.6533 40.2277 20.8065 40.1404 20.952 40.1768C21.0979 40.2132 21.1925 40.3591 21.1561 40.505C21.1274 40.6291 21.0106 40.716 20.8865 40.716ZM29.7034 40.4832C29.6598 40.4832 29.6084 40.4686 29.5721 40.4468C29.4407 40.374 29.3898 40.2063 29.4629 40.0749C29.5361 39.944 29.7034 39.9003 29.8344 39.9731C29.9657 40.0458 30.0167 40.2132 29.9439 40.3445C29.8926 40.4322 29.798 40.4832 29.7034 40.4832ZM21.0688 40.0094C21.047 40.0094 21.0179 40.0094 20.9961 40.0018C20.8502 39.9585 20.7633 39.8126 20.8069 39.6667C20.8433 39.5212 20.9961 39.4335 21.142 39.4775C21.2875 39.5139 21.3752 39.6667 21.3312 39.8126C21.3021 39.9294 21.1856 40.0094 21.0688 40.0094ZM30.0385 39.8417C30.0017 39.8417 29.9581 39.8272 29.9217 39.8126C29.7835 39.7471 29.7248 39.5794 29.798 39.4408C29.8635 39.3098 30.0239 39.2516 30.1622 39.3171C30.2935 39.3898 30.3513 39.5503 30.2859 39.6889C30.2349 39.7835 30.1399 39.8417 30.0385 39.8417ZM21.273 39.3098C21.2439 39.3098 21.2148 39.3098 21.1929 39.3021C21.047 39.2585 20.967 39.1053 21.0106 38.9598C21.0543 38.8139 21.2075 38.7338 21.3534 38.7775C21.4989 38.8212 21.5789 38.9743 21.5357 39.1198C21.4985 39.2371 21.3894 39.3098 21.273 39.3098ZM30.3299 39.1716C30.3008 39.1716 30.2644 39.1716 30.2353 39.157C30.0971 39.0988 30.0239 38.9456 30.0749 38.7997C30.1331 38.6615 30.2863 38.5883 30.4322 38.6465C30.5708 38.6979 30.6436 38.8579 30.5854 38.9962H30.5926C30.5482 39.1057 30.439 39.1716 30.3299 39.1716ZM21.4985 38.6251C21.4694 38.6251 21.4403 38.6174 21.4112 38.6106C21.2657 38.5592 21.1929 38.3992 21.2434 38.261C21.2948 38.115 21.4476 38.0423 21.5931 38.0932C21.7317 38.1441 21.8117 38.2969 21.7604 38.4428C21.7176 38.5524 21.6153 38.6251 21.4985 38.6251ZM30.5704 38.4869C30.5413 38.4869 30.5122 38.4796 30.4904 38.4723C30.3445 38.4287 30.2644 38.2755 30.3081 38.1373C30.3513 37.9914 30.5045 37.9113 30.6504 37.955C30.7963 37.9982 30.8764 38.1518 30.8327 38.2901C30.7963 38.4137 30.6864 38.4869 30.5704 38.4869ZM21.7608 37.9404C21.7244 37.9404 21.6881 37.9404 21.6589 37.9259C21.513 37.8677 21.4476 37.7072 21.5058 37.5686C21.564 37.4303 21.724 37.3572 21.8627 37.4154C22.0009 37.4736 22.0668 37.6341 22.0086 37.7727C21.9722 37.8818 21.8703 37.9404 21.7608 37.9404ZM30.7668 37.7872C30.7446 37.7872 30.7232 37.78 30.701 37.78C30.5478 37.7436 30.4609 37.5908 30.4972 37.4449C30.5336 37.299 30.6864 37.2117 30.8323 37.2481C30.9782 37.2844 31.0655 37.4304 31.0291 37.5763C31 37.6999 30.8832 37.7872 30.7668 37.7872ZM22.0526 37.2772C22.0158 37.2772 21.9722 37.2695 21.9358 37.2481C21.7972 37.1826 21.739 37.0221 21.8045 36.8839C21.8703 36.7525 22.0377 36.6947 22.1686 36.7602C22.3069 36.8257 22.3655 36.9862 22.3 37.1244C22.2495 37.2186 22.1545 37.2772 22.0526 37.2772ZM30.92 37.0731C30.8978 37.0731 30.8832 37.0731 30.8687 37.0731C30.7159 37.0444 30.6209 36.8984 30.6504 36.7525C30.6795 36.607 30.8182 36.5048 30.9709 36.5343C31.1169 36.5634 31.2187 36.702 31.1896 36.8548C31.1605 36.9858 31.0437 37.0731 30.92 37.0731ZM22.395 36.6361C22.344 36.6361 22.3004 36.6216 22.2567 36.5993C22.1254 36.5193 22.0821 36.3516 22.1622 36.2206C22.2349 36.0969 22.4026 36.0529 22.5336 36.126C22.665 36.2061 22.7086 36.3738 22.6286 36.5048C22.5773 36.5848 22.4895 36.6361 22.395 36.6361ZM31.0368 36.3589C31.0223 36.3589 31.0077 36.3589 31 36.3589C30.8473 36.337 30.745 36.1988 30.7668 36.0529C30.7814 35.8997 30.92 35.7906 31.0655 35.8124C31.2187 35.8346 31.3206 35.9729 31.306 36.1188C31.2842 36.257 31.1678 36.3589 31.0368 36.3589ZM22.7737 36.0165C22.7228 36.0165 22.6791 36.002 22.6282 35.9797C22.5041 35.8997 22.4604 35.7251 22.5477 35.6014C22.6205 35.4701 22.7959 35.4333 22.9196 35.5137C23.0506 35.5937 23.0873 35.7615 23.0073 35.8928C22.956 35.9729 22.8683 36.0165 22.7737 36.0165ZM31.1023 35.6378C31.095 35.6378 31.095 35.6378 31.0878 35.6378C30.935 35.6232 30.8254 35.4992 30.8327 35.3464C30.84 35.1932 30.9709 35.0768 31.1169 35.0913C31.2696 35.0986 31.3864 35.2296 31.3792 35.3755C31.3642 35.521 31.2478 35.6378 31.1023 35.6378ZM23.1674 35.4046C23.1164 35.4046 23.0651 35.39 23.0146 35.3609C22.8905 35.2805 22.8541 35.1128 22.9346 34.9822C23.0146 34.8581 23.1896 34.8217 23.3133 34.9018C23.4369 34.9822 23.4733 35.1495 23.3933 35.2805C23.3424 35.3609 23.2547 35.4046 23.1674 35.4046ZM31.1169 34.9091C30.9709 34.9091 30.8473 34.7922 30.8473 34.6395C30.84 34.494 30.9641 34.3626 31.1096 34.3626C31.2628 34.3549 31.3868 34.4794 31.3937 34.6322C31.3937 34.7777 31.2769 34.9014 31.1241 34.9091H31.1169ZM23.5606 34.7999C23.5097 34.7999 23.4584 34.7854 23.4079 34.7486C23.2842 34.6686 23.2547 34.494 23.3351 34.3699C23.4224 34.2462 23.5901 34.2171 23.7215 34.2971C23.8452 34.3844 23.8743 34.5518 23.7942 34.6758C23.787 34.6758 23.787 34.6758 23.787 34.6758C23.7356 34.7559 23.6483 34.7999 23.5606 34.7999ZM23.9834 34.2021C23.9252 34.2021 23.8666 34.1876 23.8229 34.1512C23.6993 34.0639 23.6702 33.8889 23.7647 33.7652C23.8525 33.6484 24.0198 33.6193 24.1439 33.707C24.268 33.8016 24.2898 33.9693 24.2021 34.093C24.1511 34.1658 24.0634 34.2021 23.9834 34.2021ZM31.0655 34.1876C30.9269 34.1876 30.8109 34.0857 30.7887 33.9475C30.7741 33.8016 30.876 33.6634 31.0219 33.6411C31.1751 33.6193 31.3133 33.7216 31.3351 33.8743C31.3497 34.0198 31.2474 34.1581 31.1019 34.1803C31.0874 34.1803 31.0728 34.1876 31.0655 34.1876ZM24.428 33.6266C24.3625 33.6266 24.3043 33.612 24.2534 33.5688C24.1366 33.4738 24.122 33.2992 24.2166 33.1824C24.3112 33.0656 24.4862 33.0514 24.603 33.146C24.7194 33.2406 24.734 33.4156 24.6394 33.532C24.5808 33.5975 24.508 33.6266 24.428 33.6266ZM30.9127 33.4734C30.7891 33.4734 30.6868 33.4006 30.6504 33.2842C30.6068 33.1383 30.6868 32.9851 30.8327 32.9415C30.9709 32.8978 31.1241 32.9783 31.1678 33.1238C31.2191 33.2697 31.1314 33.4156 30.9855 33.4665C30.9637 33.4734 30.9346 33.4734 30.9127 33.4734ZM24.9159 33.0874C24.8431 33.0874 24.7776 33.0652 24.719 33.0074C24.6172 32.9051 24.6099 32.7301 24.719 32.621C24.8213 32.5187 24.9963 32.5118 25.1054 32.621C25.2146 32.7232 25.2146 32.8978 25.1054 33.0074C25.0545 33.0583 24.9817 33.0874 24.9159 33.0874ZM30.6286 32.8105C30.5336 32.8105 30.439 32.7592 30.3881 32.6723C30.3154 32.5409 30.359 32.3736 30.4904 32.3004C30.6213 32.2204 30.7891 32.2641 30.8618 32.395C30.9346 32.5264 30.8909 32.6937 30.7596 32.7737C30.7232 32.796 30.6722 32.8105 30.6286 32.8105ZM25.4478 32.5991C25.3677 32.5991 25.2877 32.5624 25.2364 32.4969C25.1418 32.3801 25.1563 32.2055 25.2732 32.1109C25.3968 32.0159 25.5646 32.0377 25.6592 32.1541C25.7541 32.2709 25.7396 32.446 25.6228 32.5405C25.5719 32.5773 25.5064 32.5991 25.4478 32.5991ZM30.1767 32.2422C30.1112 32.2422 30.0454 32.2204 29.9944 32.1695C29.8853 32.0676 29.8708 31.8926 29.9726 31.7835C30.0749 31.6744 30.2499 31.6667 30.359 31.7617C30.4758 31.8635 30.4831 32.0385 30.3808 32.1549C30.3222 32.2131 30.2499 32.2422 30.1767 32.2422ZM26.0456 32.1836C25.9506 32.1836 25.856 32.1404 25.8123 32.0527C25.7323 31.9213 25.776 31.754 25.9073 31.674C26.0383 31.6008 26.2056 31.6449 26.2788 31.7762C26.3588 31.9072 26.3152 32.0745 26.1842 32.1477C26.1401 32.1768 26.0892 32.1836 26.0456 32.1836ZM26.7011 31.8777C26.5843 31.8777 26.4829 31.8045 26.4388 31.6954C26.3875 31.5572 26.4607 31.3967 26.6066 31.3458C26.7448 31.2948 26.9049 31.368 26.9562 31.5062C27.0071 31.6517 26.934 31.8049 26.7957 31.8558C26.7593 31.8708 26.7302 31.8777 26.7011 31.8777ZM29.5648 31.8486C29.528 31.8486 29.4989 31.8413 29.4625 31.8267C29.3243 31.7685 29.2584 31.6081 29.3166 31.4694C29.3748 31.3312 29.5353 31.2657 29.6739 31.3239C29.8121 31.3894 29.8776 31.5422 29.8194 31.6808C29.7758 31.7904 29.6739 31.8486 29.5648 31.8486ZM27.4008 31.6885C27.2694 31.6885 27.153 31.5939 27.1312 31.4626C27.1021 31.3167 27.2039 31.1712 27.3571 31.1489C27.503 31.1198 27.6413 31.2221 27.6708 31.3676C27.6926 31.5208 27.598 31.659 27.4448 31.6881C27.4448 31.6808 27.4448 31.6808 27.4448 31.6808C27.4299 31.6885 27.4153 31.6885 27.4008 31.6885ZM28.8651 31.6667C28.8583 31.6667 28.8433 31.6667 28.8364 31.6667C28.8288 31.6667 28.8288 31.6667 28.8219 31.6667H28.8142C28.6614 31.6449 28.5592 31.5066 28.5737 31.3607C28.596 31.2079 28.7342 31.1057 28.8797 31.1202C28.887 31.1202 28.8942 31.1275 28.8942 31.1275H28.9015C29.0547 31.1421 29.1566 31.2807 29.142 31.4262C29.1202 31.5717 29.0038 31.6667 28.8651 31.6667ZM28.1223 31.6226C27.9691 31.6226 27.8527 31.5062 27.845 31.3534C27.845 31.2003 27.9687 31.0839 28.1223 31.0762C28.2678 31.0762 28.3914 31.2003 28.3991 31.3458C28.3991 31.4989 28.275 31.6226 28.1223 31.6226Z" fill="white"/>
<g id="Group_15">
<g id="Group_16">
<g id="Group_17">
<path id="Vector_14" d="M30.6172 35.2633C30.4151 35.948 26.8454 40.2635 23.6818 39.9336C22.6515 39.8241 22.9971 34.1752 22.9971 34.1752L22.9272 33.7524L21.9539 27.8328L29.0716 23.8192L30.097 23.293C30.097 23.293 30.2563 24.9299 30.4345 26.9706C30.4434 27.0652 30.4523 27.1598 30.46 27.2612C30.4733 27.3764 30.4871 27.4852 30.4939 27.5931C30.5246 27.8974 30.5546 28.2087 30.5776 28.5191C30.5966 28.7551 30.6156 28.9847 30.6261 29.2337C30.6431 29.483 30.6544 29.7252 30.6718 29.9745C30.787 32.4352 30.6984 34.9723 30.6172 35.2633Z" fill="white"/>
<path id="Vector_15" d="M30.4348 26.9702C28.4943 31.5265 24.6699 33.2108 22.9271 33.752L21.9538 27.8323L29.0715 23.8187L30.0969 23.2925C30.0969 23.2925 30.2566 24.9298 30.4348 26.9702Z" fill="#1B4B4C"/>
</g>
<g id="Group_18">
<path id="Vector_16" d="M14.1004 19.5786C13.3976 30.0841 19.6107 31.6916 21.8761 31.8403C23.933 31.9757 30.9529 32.175 32.7374 21.7984C34.5218 11.4218 29.8596 7.77399 25.1723 7.21541C20.4849 6.65723 14.8033 9.07304 14.1004 19.5786Z" fill="white"/>
<g id="Group_19">
<path id="Vector_17" d="M17.2932 16.9066C17.541 16.8868 17.7665 16.8274 18.0098 16.7825C18.2843 16.732 18.5078 16.7199 18.7168 16.517C18.8287 16.4083 18.8283 16.1787 18.7329 16.0603C18.5102 15.7842 18.1586 15.7624 17.8259 15.8097C17.4646 15.861 17.1995 15.9932 16.9525 16.2607C16.7124 16.5194 16.9658 16.9321 17.2932 16.9066Z" fill="#1B4B4C"/>
<path id="Vector_18" d="M24.6797 17.4294C24.4331 17.3959 24.2112 17.3235 23.9711 17.2653C23.6999 17.1994 23.4772 17.1748 23.2804 16.9602C23.1749 16.845 23.1878 16.6158 23.2901 16.503C23.5277 16.2395 23.8802 16.2379 24.2096 16.3038C24.5673 16.3757 24.8248 16.5224 25.0564 16.8033C25.2811 17.0758 25.005 17.4735 24.6797 17.4294Z" fill="#1B4B4C"/>
<g id="Group_20">
<g id="Group_21">
<path id="Vector_19" d="M22.9583 20.1086C22.9648 20.0815 23.0129 20.145 23.0108 20.1745C22.9571 20.8895 23.0161 21.7181 23.6539 21.9836C23.6737 21.9921 23.6701 22.0277 23.6462 22.0236C22.8601 21.8781 22.7926 20.778 22.9583 20.1086Z" fill="#1B4B4C"/>
<path id="Vector_20" d="M23.6296 19.3881C24.7856 19.3506 24.7759 21.6645 23.7052 21.6997C22.6519 21.734 22.6612 19.4201 23.6296 19.3881Z" fill="#1B4B4C"/>
</g>
<path id="Vector_21" d="M24.084 19.5122C24.2857 19.644 24.4829 19.876 24.7263 19.9011C25.0084 19.9302 25.2222 19.6889 25.4073 19.4565C25.4263 19.4322 25.4465 19.4528 25.4469 19.4831C25.4518 19.9265 25.2792 20.3808 24.8039 20.4451C24.3698 20.5037 24.0602 20.1096 23.9514 19.6634C23.9304 19.581 24.0028 19.4593 24.084 19.5122Z" fill="#1B4B4C"/>
</g>
<g id="Group_22">
<g id="Group_23">
<path id="Vector_22" d="M18.5843 19.5797C18.5791 19.5522 18.5278 19.6129 18.5282 19.6424C18.5415 20.3594 18.436 21.1831 17.7845 21.4123C17.7643 21.4196 17.7659 21.4555 17.7901 21.4523C18.5827 21.3517 18.7117 20.2571 18.5843 19.5797Z" fill="#1B4B4C"/>
<path id="Vector_23" d="M17.9538 18.8227C16.8018 18.72 16.681 21.0311 17.748 21.1261C18.7985 21.2203 18.9194 18.9087 17.9538 18.8227Z" fill="#1B4B4C"/>
</g>
<path id="Vector_24" d="M17.4642 18.9499C17.275 19.0631 17.0827 19.2761 16.864 19.2789C16.6102 19.2821 16.4364 19.0226 16.2872 18.7745C16.2719 18.7486 16.2525 18.7672 16.25 18.7975C16.2145 19.2385 16.3365 19.7065 16.7565 19.8132C17.1392 19.911 17.4436 19.5465 17.5717 19.1124C17.596 19.0319 17.5402 18.9046 17.4642 18.9499Z" fill="#1B4B4C"/>
</g>
<path id="Vector_25" d="M22.2514 25.6698C22.0869 25.8448 21.9252 26.0824 21.6661 26.1152C21.4176 26.1463 21.1209 26.0457 20.8889 25.9668C20.8658 25.9588 20.844 25.9842 20.8594 26.0048C21.0566 26.272 21.4552 26.428 21.7846 26.3561C22.1063 26.2861 22.2554 25.9992 22.3217 25.6993C22.331 25.6572 22.2752 25.6443 22.2514 25.6698Z" fill="#1B4B4C"/>
<g id="Group_24">
<path id="Vector_26" d="M19.2952 23.0312C19.2952 23.0312 19.1303 24.0994 19.1222 24.6047C19.1218 24.6519 19.2435 24.6762 19.4148 24.6891C19.4229 24.692 19.4274 24.6952 19.4346 24.6899C20.3242 24.8435 21.2268 24.5497 21.7805 23.8302C21.8161 23.7813 21.753 23.7284 21.7066 23.7591C21.0332 24.2373 20.2956 24.3516 19.5046 24.3524C19.471 24.2122 19.8481 22.5324 19.7681 22.5251C19.4924 22.4972 18.9456 22.6763 18.6174 22.7668C18.8963 20.5317 19.5312 18.3596 19.7754 16.1297C19.7826 16.0501 19.6687 16.0242 19.644 16.095C18.8175 18.3248 18.4399 20.8898 18.0928 23.1908C18.0463 23.4766 19.0919 23.114 19.2952 23.0312Z" fill="#1B4B4C"/>
</g>
</g>
<path id="Vector_27" d="M31.9658 22.0229C29.3758 21.8758 28.7938 13.8932 28.7331 12.9122C28.7392 13.5318 28.7594 16.8142 28.506 16.9395C28.4413 16.969 28.1527 16.9023 27.6956 16.7681L27.6891 16.7669C27.696 16.3955 27.675 15.9929 27.62 15.592C27.603 15.4097 27.5428 15.9852 27.4284 16.6918C27.2825 16.6481 27.1245 16.596 26.9527 16.5483C26.9875 15.8422 26.9628 14.9671 26.7591 14.0492C26.6896 13.7388 26.5772 15.1304 26.2547 16.3421C24.4767 15.8211 21.9081 15.132 19.4951 15.0007C18.8496 14.9627 18.2915 14.9586 17.7971 14.9715C17.8145 14.0031 17.9479 12.9741 17.8723 13.1948C17.6444 13.8229 17.509 14.4526 17.4293 14.9853C17.1618 14.995 16.9136 15.0079 16.6913 15.0253C16.6537 13.6555 17.3513 11.4875 17.125 11.8165C16.2596 13.0929 15.8813 14.4417 15.7326 15.1559C14.7953 15.3167 14.5338 15.4938 14.5131 15.2508C14.4776 14.8127 15.094 10.9972 18.1346 8.25522C21.4396 5.27477 27.9183 4.64626 31.4606 9.42412C31.4606 9.42412 34.4184 11.4467 34.8234 14.6118C35.2292 17.7693 33.4621 22.1058 31.9658 22.0229Z" fill="#1B4B4C"/>
<g id="Group_25">
<g id="Group_26">
<path id="Vector_28" d="M30.6509 22.1587C30.6509 22.1587 32.8833 18.8274 34.3909 19.6172C35.8981 20.407 34.2644 25.2042 32.5268 25.8905C30.7892 26.5769 30.1227 24.9807 30.1227 24.9807L30.6509 22.1587Z" fill="white"/>
<path id="Vector_29" d="M33.8881 20.9811C33.9164 20.9779 33.9225 21.0175 33.8982 21.0276C32.6808 21.549 32.0572 22.6997 31.6279 23.8888C31.984 23.4277 32.4759 23.169 33.0931 23.5914C33.1254 23.6136 33.0959 23.6641 33.0611 23.6577C32.5563 23.5598 32.1954 23.6544 31.8635 24.0639C31.6287 24.3537 31.4715 24.7174 31.3058 25.0501C31.2504 25.1608 31.0511 25.1062 31.0903 24.9789C31.0932 24.9696 31.0968 24.9599 31.0996 24.9502C31.0382 23.3856 32.2111 21.1719 33.8881 20.9811Z" fill="#1B4B4C"/>
</g>
<path id="Vector_30" d="M33.0122 25.9157C33.0122 26.3611 32.6513 26.7221 32.2059 26.7221C31.7605 26.7221 31.3995 26.3611 31.3995 25.9157C31.3995 25.4703 31.7605 25.1094 32.2059 25.1094C32.6509 25.1094 33.0122 25.4703 33.0122 25.9157Z" fill="white"/>
<path id="Vector_31" d="M33.4694 24.6211C33.4694 24.7921 33.3308 24.9307 33.1598 24.9307C32.9889 24.9307 32.8502 24.7921 32.8502 24.6211C32.8502 24.4502 32.9889 24.3115 33.1598 24.3115C33.3308 24.3115 33.4694 24.4502 33.4694 24.6211Z" fill="white"/>
</g>
</g>
</g>
</g>
</g>
</g>
</g>
</g>
</g>
</g>
</svg>
