<svg width="51" height="50" viewBox="0 0 51 50" fill="none" xmlns="http://www.w3.org/2000/svg">
<g id="Group">
<path id="Vector" d="M25.155 49.9941C38.9622 49.9941 50.155 38.8013 50.155 24.9941C50.155 11.187 38.9622 -0.00585938 25.155 -0.00585938C11.3479 -0.00585938 0.155029 11.187 0.155029 24.9941C0.155029 38.8013 11.3479 49.9941 25.155 49.9941Z" fill="#D4CAFF"/>
<g id="Group_2">
<g id="Clip path group">
<mask id="mask0_153_10032" style="mask-type:luminance" maskUnits="userSpaceOnUse" x="0" y="-1" width="51" height="51">
<g id="SVGID_00000124854671327228489380000005650075357394843059_">
<path id="Vector_2" d="M25.155 49.9941C38.9622 49.9941 50.155 38.8013 50.155 24.9941C50.155 11.187 38.9622 -0.00585938 25.155 -0.00585938C11.3479 -0.00585938 0.155029 11.187 0.155029 24.9941C0.155029 38.8013 11.3479 49.9941 25.155 49.9941Z" fill="white"/>
</g>
</mask>
<g mask="url(#mask0_153_10032)">
<g id="Group_3">
<g id="Group_4">
<g id="Group_5">
<g id="Group_6">
<path id="Vector_3" d="M49.5585 84.7673H6.29099C6.10952 83.1142 12.7369 47.955 20.5215 36.6512C21.4047 35.3687 28.971 34.4351 31.7489 37.6253C46.462 54.5222 49.9142 84.3619 49.5585 84.7673Z" fill="#6EBEB5"/>
</g>
</g>
<g id="Group_7">
<path id="Vector_4" d="M19.4965 39.5692C18.269 42.7505 13.6354 53.9052 11.117 61.9105C9.42707 67.2825 8.7832 71.7911 8.41377 72.9762C8.41377 72.9762 21.1896 68.8729 24.0662 68.8657C28.4965 68.8547 35.6024 78.1069 33.8596 79.2661C31.1192 81.0886 18.0568 87.2888 7.62522 89.2353C1.95451 90.2935 -8.72888 83.0861 -7.88494 77.3564C-6.70028 69.3147 7.83135 48.1177 13.3606 42.1067C16.2315 38.9859 20.9928 35.6918 19.4965 39.5692Z" fill="white"/>
<g id="Group_8">
<path id="Vector_5" d="M-8.66306 79.0563C-8.39549 84.8491 -1.14927 89.7251 3.05263 89.983C10.3005 90.4228 32.0431 84.0908 32.0431 84.0908L23.5916 67.8078C23.5916 67.8078 8.79648 72.8298 8.42099 72.9713L8.4214 72.9648C8.55235 72.5332 12.1981 58.8329 13.827 54.2931C13.9143 54.0425 14.0145 53.7863 14.1095 53.5163C14.5783 52.2589 15.2218 50.5985 15.9324 48.8043L15.9396 48.7918C16.3333 47.7987 16.7496 46.7612 17.1586 45.7362L17.1591 45.7297C18.946 41.2909 20.6876 37.0664 20.6876 37.0664C18.197 37.475 15.7379 38.7842 11.7001 43.0225C7.66921 47.2543 -9.10484 69.4998 -8.66306 79.0563Z" fill="#6EBEB5"/>
<g id="Group_9">
<path id="Vector_6" d="M3.89636 75.3723L8.41434 72.9767L8.42121 72.9707L8.42161 72.9642C8.55257 72.5326 12.1983 58.8323 13.8272 54.2925C13.9145 54.0419 14.0147 53.7857 14.1097 53.5157C14.5785 52.2583 15.222 50.5979 15.9326 48.8037L3.89636 75.3723Z" fill="#1B4B4C"/>
</g>
</g>
</g>
<g id="Group_10">
<g id="Group_11">
<path id="Vector_7" d="M3.44556 73.8529C4.57929 73.8682 11.425 72.0397 12.4221 72.9794C18.4986 78.7075 20.4193 77.5536 21.7127 78.2997C31.7251 84.0601 45.0951 90.827 49.8677 90.8698C57.1054 90.9284 59.9881 84.8548 58.7832 79.1157C56.405 67.7707 41.1046 45.6505 34.1821 39.7733C30.5113 36.6615 30.8015 41.3552 32.3201 46.4569C33.2105 49.4486 34.7678 53.8967 36.3567 58.2615C37.764 62.1497 41.4922 72.0866 41.5573 72.3198L41.5569 72.3263C41.5625 72.3396 41.569 72.3469 41.5686 72.3533C41.5735 72.38 41.5472 72.3849 41.489 72.3683C41.1709 72.3101 32.6091 68.2747 23.9987 66.0582C20.9645 65.2769 14.6459 64.1642 12.3805 65.1754C11.0333 65.7769 11.0103 66.5808 11.0103 66.5808C11.0103 66.5808 9.93029 66.4826 8.7913 67.4203C8.03588 68.0423 7.80145 68.9226 7.80145 68.9226C7.80145 68.9226 6.61961 69.0879 6.00485 69.773C5.27166 70.5895 5.20699 71.4544 5.20699 71.4544C3.61289 71.88 3.44556 73.8529 3.44556 73.8529Z" fill="white"/>
</g>
<g id="Group_12">
<path id="Vector_8" d="M30.4064 67.7814C28.822 67.245 28.1054 67.2418 28.1054 67.2418L19.0978 82.4537C19.0978 82.4537 43.909 91.3857 49.0038 91.9084C54.0981 92.431 59.8937 88.419 59.9915 82.0228C60.1289 73.0338 45.4704 51.4467 38.0969 43.0991C34.7175 39.2731 30.7771 36.4951 29.7727 37.1216C28.5856 37.8625 30.7411 42.6727 31.8773 46.261C33.9746 52.8856 41.4892 72.3681 41.4892 72.3681C41.4892 72.3681 32.2936 68.4204 30.4064 67.7814Z" fill="#6EBEB5"/>
</g>
</g>
<g id="Group_13">
<g id="Group_14">
<g id="Group_15">
<g id="Group_16">
<path id="Vector_9" d="M21.3441 43.0277C23.6755 43.866 28.2028 40.6717 30.1634 37.8893C30.2968 37.6977 30.2281 35.5188 30.2702 32.8665C30.3021 31.257 30.3752 29.4661 30.56 27.8364L20.0576 29.1597C20.0576 29.1597 20.6748 32.6895 20.3349 35.5289C20.3038 35.7657 20.2553 35.984 20.1886 36.1897C20.1817 36.22 20.1688 36.2564 20.1611 36.2988C19.8107 37.5457 19.0912 42.2161 21.3441 43.0277Z" fill="white"/>
</g>
<path id="Vector_10" d="M20.1589 36.2977C20.1387 36.3652 20.1185 36.4392 20.1048 36.5269C26.3923 36.2605 28.7834 33.4959 30.3315 30.8436C30.3787 29.8324 30.4462 28.8078 30.5606 27.8369L20.0575 29.1582C20.0575 29.1582 20.6779 32.6908 20.334 35.5289C20.3069 35.765 20.2531 35.9808 20.1856 36.1898C20.1791 36.2165 20.1723 36.2573 20.1589 36.2977Z" fill="#1B4B4C"/>
</g>
<g id="Group_17">
<g id="Group_18">
<path id="Vector_11" d="M33.3978 14.7783C34.4992 18.4293 32.5401 28.9591 29.9384 31.3001C26.167 34.6937 20.0088 35 17.1294 30.4699C14.3385 26.0793 17.1347 12.4013 20.0391 10.2757C24.3174 7.14527 31.771 9.38567 33.3978 14.7783Z" fill="white"/>
</g>
<g id="Group_19">
<g id="Group_20">
<path id="Vector_12" d="M24.4372 20.6795C24.4477 20.6536 24.4865 20.7231 24.4805 20.7522C24.3297 21.4579 24.2756 22.2918 24.875 22.6438C24.8936 22.6547 24.8851 22.6899 24.8616 22.6826C24.0977 22.43 24.181 21.3238 24.4372 20.6795Z" fill="#1B4B4C"/>
<path id="Vector_13" d="M25.2053 20.053C26.3629 20.1731 26.0375 22.4793 24.9652 22.3678C23.9099 22.2583 24.2352 19.952 25.2053 20.053Z" fill="#1B4B4C"/>
</g>
<g id="Group_21">
<path id="Vector_14" d="M20.0851 20.0245C20.0835 19.9963 20.0245 20.0504 20.0213 20.0795C19.9429 20.7969 19.7331 21.6057 19.0533 21.7516C19.0322 21.7561 19.029 21.7924 19.0533 21.7924C19.858 21.7929 20.1264 20.7165 20.0851 20.0245Z" fill="#1B4B4C"/>
<path id="Vector_15" d="M19.5524 19.1883C18.4158 18.9393 18.0011 21.2307 19.054 21.4614C20.0904 21.689 20.5051 19.3973 19.5524 19.1883Z" fill="#1B4B4C"/>
</g>
<path id="Vector_16" d="M26.2642 19.1265C25.9611 19.0032 25.7024 18.8387 25.4154 18.6859C25.0917 18.5133 24.816 18.4091 24.6354 18.0716C24.5388 17.8905 24.6301 17.6027 24.797 17.4924C25.1863 17.2349 25.6353 17.3477 26.0334 17.5393C26.4655 17.7474 26.7452 18.0186 26.9485 18.4523C27.1458 18.8727 26.6635 19.289 26.2642 19.1265Z" fill="#1B4B4C"/>
<path id="Vector_17" d="M18.8241 17.9015C19.1511 17.8946 19.4518 17.8336 19.7743 17.7928C20.1385 17.7471 20.4331 17.7483 20.7221 17.4973C20.8773 17.3627 20.8943 17.0616 20.7779 16.8987C20.5063 16.5192 20.0468 16.4646 19.6062 16.5014C19.128 16.5418 18.7699 16.695 18.4252 17.0276C18.0913 17.3494 18.3928 17.9108 18.8241 17.9015Z" fill="#1B4B4C"/>
<path id="Vector_18" d="M23.7664 27.2638C23.5716 27.4069 23.3687 27.613 23.1064 27.5981C22.855 27.5839 22.5789 27.4307 22.3639 27.3103C22.3429 27.2986 22.3162 27.3192 22.3279 27.3426C22.4747 27.6429 22.8408 27.8697 23.18 27.8583C23.5114 27.8474 23.7106 27.5904 23.8307 27.3058C23.8473 27.2658 23.7947 27.2428 23.7664 27.2638Z" fill="#1B4B4C"/>
<g id="Group_22">
<g id="Group_23">
<path id="Vector_19" d="M23.317 25.0192C22.8295 25.583 22.1942 25.8389 21.541 25.8724C21.2492 25.8894 20.9493 25.8571 20.6603 25.7892C20.6029 25.7799 20.5463 25.7653 20.4958 25.7463C20.4444 25.7326 20.3984 25.7201 20.3426 25.7003C20.2609 25.6764 20.2246 25.6008 20.2217 25.52L20.2225 25.5147C20.2266 25.4889 20.2302 25.4678 20.2395 25.4428C20.2395 25.4428 20.2395 25.4428 20.2403 25.4375L20.2508 25.3753C20.3135 24.8232 20.4849 23.9942 20.4849 23.9942C20.2694 24.0665 19.1802 24.383 19.2367 24.0977C19.7141 21.7392 20.2452 19.1157 21.2185 16.8692C21.2468 16.7937 21.364 16.8284 21.3462 16.906C20.9772 19.1913 20.2088 21.3961 19.8014 23.6854C20.1458 23.6074 20.7116 23.4526 20.9986 23.4987C21.0738 23.5322 20.6389 25.0948 20.6308 25.345C20.6308 25.345 20.6292 25.3555 20.6316 25.3721C21.539 25.6206 22.275 25.4396 23.2596 24.9452C23.3182 24.9125 23.3679 24.9687 23.317 25.0192Z" fill="#1B4B4C"/>
</g>
</g>
</g>
<g id="Group_24">
<path id="Vector_20" d="M34.4248 23.1261C31.5874 23.4118 29.9998 20.0664 30.5826 17.3184C30.5826 17.3184 23.0522 18.5511 22.5054 12.492C22.5054 12.492 21.0996 15.1717 17.673 15.3662L16.8957 17.6296C16.1132 17.4291 15.2208 15.2498 17.0659 13.4629C17.0659 13.4629 17.1047 10.4331 19.28 8.54959C21.4549 6.66569 23.7078 7.79215 23.7078 7.79215C23.7078 7.79215 25.4361 6.25787 28.2327 6.52988C31.0292 6.8019 32.2527 9.30703 32.2527 9.30703C32.2527 9.30703 36.0201 9.90926 36.7387 12.5502C37.4574 15.1915 36.1365 17.0168 36.1365 17.0168C36.1365 17.0168 37.1082 18.0334 36.6995 20.3182C36.4372 21.7874 35.2764 23.04 34.4248 23.1261Z" fill="#1B4B4C"/>
<path id="Vector_21" d="M22.6561 11.9482C22.6209 12.445 22.6164 12.9425 22.6844 13.4312C22.7276 13.9215 22.8448 14.3992 23.0025 14.8568C23.3351 15.7654 23.9648 16.5495 24.8193 16.982C25.6515 17.4803 26.6615 17.532 27.6279 17.5971C28.1174 17.5672 28.6129 17.5721 29.104 17.5147C29.5947 17.45 30.0846 17.3736 30.5829 17.3182C30.1031 17.4508 29.6161 17.5616 29.1291 17.6844C28.6376 17.7774 28.1332 17.8037 27.6324 17.8663C26.6332 17.8558 25.5763 17.8037 24.6543 17.2903C23.7389 16.7972 23.0421 15.9238 22.7486 14.942C22.4576 13.9611 22.4435 12.9223 22.6561 11.9482Z" fill="#1B4B4C"/>
<path id="Vector_22" d="M18.8652 15.5749C19.6974 15.2427 20.4715 14.8316 21.121 14.2702C21.454 13.999 21.7297 13.6696 21.9783 13.3199C22.2381 12.9719 22.3962 12.5653 22.5789 12.1519C22.5389 12.5969 22.4374 13.0552 22.2095 13.4582C21.9993 13.8684 21.7022 14.2374 21.3498 14.5353C20.9965 14.832 20.6032 15.0798 20.1801 15.2511C19.7585 15.4233 19.3171 15.5498 18.8652 15.5749Z" fill="#1B4B4C"/>
</g>
<g id="Group_25">
<path id="Vector_23" d="M31.1189 23.3577C31.1189 23.3577 33.5796 20.0066 35.1054 20.8922C36.6316 21.7773 34.7255 26.6736 32.8953 27.3066C31.0652 27.9399 30.4456 26.2569 30.4456 26.2569L31.1189 23.3577Z" fill="white"/>
<path id="Vector_24" d="M34.5244 22.2823C34.5535 22.2803 34.5584 22.3211 34.5329 22.3312C33.2488 22.817 32.5516 23.9815 32.0537 25.1936C32.4433 24.7317 32.9643 24.4855 33.5847 24.9507C33.617 24.9754 33.5843 25.0263 33.5483 25.0178C33.0298 24.8941 32.6518 24.9758 32.2901 25.3848C32.0339 25.6746 31.8548 26.0444 31.6685 26.3815C31.6062 26.4939 31.4021 26.4284 31.4486 26.2983C31.4518 26.289 31.4559 26.2789 31.4595 26.2692C31.4652 24.646 32.7788 22.4048 34.5244 22.2823Z" fill="#1B4B4C"/>
</g>
</g>
</g>
</g>
<path id="Vector_25" d="M19.1873 38.1217C19.1918 38.1003 19.2265 38.1039 19.2241 38.1262C19.02 40.213 18.6942 45.0583 22.2421 44.9067C23.6713 44.8457 24.9971 44.0733 26.1074 43.309C27.248 42.5241 28.2697 41.6009 29.1986 40.6066C30.2292 39.5032 30.578 38.9814 31.327 38.1973C31.3714 38.1508 31.4474 38.2038 31.4119 38.2575C30.6383 39.4309 30.572 39.7 29.5623 40.8657C28.5907 41.9873 27.4921 43.0236 26.225 43.8599C25.0375 44.6436 23.6277 45.4112 22.116 45.4083C20.6779 45.4063 19.6578 44.5418 19.2746 43.2949C18.7718 41.6575 18.8587 39.7667 19.1873 38.1217Z" fill="#1B4B4C"/>
</g>
</g>
</g>
</g>
</g>
</g>
</svg>
