<svg width="76" height="76" viewBox="0 0 76 76" fill="none" xmlns="http://www.w3.org/2000/svg">
<g id="Frame" clip-path="url(#clip0_304_9413)">
<path id="Vector" fill-rule="evenodd" clip-rule="evenodd" d="M4.64656 22.2898C6.75328 17.8779 12.2792 15.5216 19.6641 15.3875C22.6952 15.3325 26.0226 15.6532 29.5239 16.3529C26.3622 20.223 23.4109 24.8598 20.926 30.0636C18.4412 35.2673 16.6906 40.4772 15.6684 45.3689C12.9232 43.0858 10.582 40.6997 8.71938 38.3079C4.18115 32.4804 2.53985 26.7016 4.64656 22.2898ZM15.5994 45.7039C6.04834 37.8062 1.27984 28.6396 4.37411 22.1597C7.46836 15.6797 17.5948 13.6257 29.7411 16.0887C37.6389 6.53782 46.8052 1.7695 53.2851 4.86373C59.765 7.95793 61.819 18.0842 59.3562 30.2303C68.9071 38.128 73.6754 47.2944 70.5812 53.7743C67.4869 60.2542 57.3607 62.3083 45.2147 59.8454C37.3169 69.3965 28.1504 74.1651 21.6704 71.0707C15.1905 67.9765 13.1365 57.8501 15.5994 45.7039ZM44.8796 59.7765C42.5966 62.5217 40.2105 64.8628 37.8186 66.7255C31.9911 71.2638 26.2124 72.905 21.8005 70.7983C17.3887 68.6916 15.0324 63.1657 14.8983 55.7807C14.8433 52.7497 15.164 49.4224 15.8637 45.9211C19.7337 49.0827 24.3703 52.0339 29.574 54.5187C34.7778 57.0037 39.9878 58.7542 44.8796 59.7765ZM45.0972 59.5133C40.1871 58.5014 34.9446 56.7487 29.7041 54.2463C24.4637 51.744 19.8052 48.7688 15.9316 45.5864C16.9434 40.6765 18.6961 35.4341 21.1984 30.1937C23.7009 24.9532 26.6761 20.2945 29.8586 16.4209C34.7686 17.4327 40.0109 19.1854 45.2512 21.6877C50.4917 24.1901 55.1504 27.1654 59.024 30.3478C58.0122 35.2579 56.2595 40.5004 53.7571 45.7408C51.2547 50.9812 48.2796 55.6398 45.0972 59.5133ZM45.4319 59.5812C48.933 60.2808 52.2603 60.6015 55.2912 60.5465C62.6761 60.4124 68.202 58.0561 70.3087 53.6442C72.4154 49.2324 70.7741 43.4536 66.2359 37.6261C64.3733 35.2344 62.0322 32.8484 59.2872 30.5654C58.265 35.4571 56.5144 40.6672 54.0296 45.8709C51.5448 51.0746 48.5935 55.7111 45.4319 59.5812ZM59.0919 30.0131C59.7916 26.512 60.1122 23.1847 60.0572 20.1538C59.9231 12.7688 57.5668 7.2429 53.155 5.13617C48.7431 3.02947 42.9644 4.67078 37.1368 9.209C34.7452 11.0716 32.3592 13.4126 30.0762 16.1576C34.9678 17.1799 40.1776 18.9304 45.3813 21.4152C50.5851 23.9001 55.2218 26.8514 59.0919 30.0131ZM32.6142 24.5557L35.6912 32.3614C36.8374 35.269 40.0557 36.7744 43.0222 35.7904L50.9857 33.1489L43.1801 36.2258C40.2724 37.3721 38.7671 40.5903 39.751 43.5568L42.3925 51.5204L39.3156 43.7147C38.1694 40.807 34.9511 39.3017 31.9846 40.2857L24.021 42.9272L31.8267 39.8502C34.7344 38.7041 36.2398 35.4857 35.2558 32.5193L32.6142 24.5557Z" fill="#F4F4EE" stroke="#F4F4EE"/>
<path id="Vector_2" fill-rule="evenodd" clip-rule="evenodd" d="M4.64656 22.2898C6.75328 17.8779 12.2792 15.5216 19.6641 15.3875C22.6952 15.3325 26.0226 15.6532 29.5239 16.3529C26.3622 20.223 23.4109 24.8598 20.926 30.0636C18.4412 35.2673 16.6906 40.4772 15.6684 45.3689C12.9232 43.0858 10.582 40.6997 8.71938 38.3079C4.18115 32.4804 2.53985 26.7016 4.64656 22.2898ZM15.5994 45.7039C6.04834 37.8062 1.27984 28.6396 4.37411 22.1597C7.46836 15.6797 17.5948 13.6257 29.7411 16.0887C37.6389 6.53782 46.8052 1.7695 53.2851 4.86373C59.765 7.95793 61.819 18.0842 59.3562 30.2303C68.9071 38.128 73.6754 47.2944 70.5812 53.7743C67.4869 60.2542 57.3607 62.3083 45.2147 59.8454C37.3169 69.3965 28.1504 74.1651 21.6704 71.0707C15.1905 67.9765 13.1365 57.8501 15.5994 45.7039ZM44.8796 59.7765C42.5966 62.5217 40.2105 64.8628 37.8186 66.7255C31.9911 71.2638 26.2124 72.905 21.8005 70.7983C17.3887 68.6916 15.0324 63.1657 14.8983 55.7807C14.8433 52.7497 15.164 49.4224 15.8637 45.9211C19.7337 49.0827 24.3703 52.0339 29.574 54.5187C34.7778 57.0037 39.9878 58.7542 44.8796 59.7765ZM45.0972 59.5133C40.1871 58.5014 34.9446 56.7487 29.7041 54.2463C24.4637 51.744 19.8052 48.7688 15.9316 45.5864C16.9434 40.6765 18.6961 35.4341 21.1984 30.1937C23.7009 24.9532 26.6761 20.2945 29.8586 16.4209C34.7686 17.4327 40.0109 19.1854 45.2512 21.6877C50.4917 24.1901 55.1504 27.1654 59.024 30.3478C58.0122 35.2579 56.2595 40.5004 53.7571 45.7408C51.2547 50.9812 48.2796 55.6398 45.0972 59.5133ZM45.4319 59.5812C48.933 60.2808 52.2603 60.6015 55.2912 60.5465C62.6761 60.4124 68.202 58.0561 70.3087 53.6442C72.4154 49.2324 70.7741 43.4536 66.2359 37.6261C64.3733 35.2344 62.0322 32.8484 59.2872 30.5654C58.265 35.4571 56.5144 40.6672 54.0296 45.8709C51.5448 51.0746 48.5935 55.7111 45.4319 59.5812ZM59.0919 30.0131C59.7916 26.512 60.1122 23.1847 60.0572 20.1538C59.9231 12.7688 57.5668 7.2429 53.155 5.13617C48.7431 3.02947 42.9644 4.67078 37.1368 9.209C34.7452 11.0716 32.3592 13.4126 30.0762 16.1576C34.9678 17.1799 40.1776 18.9304 45.3813 21.4152C50.5851 23.9001 55.2218 26.8514 59.0919 30.0131ZM32.6142 24.5557L35.6912 32.3614C36.8374 35.269 40.0557 36.7744 43.0222 35.7904L50.9857 33.1489L43.1801 36.2258C40.2724 37.3721 38.7671 40.5903 39.751 43.5568L42.3925 51.5204L39.3156 43.7147C38.1694 40.807 34.9511 39.3017 31.9846 40.2857L24.021 42.9272L31.8267 39.8502C34.7344 38.7041 36.2398 35.4857 35.2558 32.5193L32.6142 24.5557Z" fill="#F4F4EE" stroke="#F4F4EE"/>
</g>
<defs>
<clipPath id="clip0_304_9413">
<rect width="59" height="59" fill="white" transform="translate(0 20.1136) rotate(-19.9322)"/>
</clipPath>
</defs>
</svg>
